<svg xmlns="http://www.w3.org/2000/svg" xmlns:xlink="http://www.w3.org/1999/xlink" width="880.585" height="730.585" viewBox="0 0 880.585 730.585"><defs><style>.a{fill:#f5f5f5;}.b,.c,.i,.m{fill:none;}.b,.j{stroke:#707070;}.b,.i,.j,.k{stroke-width:0.5px;}.d{clip-path:url(#a);}.e,.j,.k{fill:#ed6d44;}.f{fill:#fff;}.g{fill:#a6a6a6;font-size:20px;font-family:Poppins-Light, Poppins;font-weight:300;}.h{clip-path:url(#h);}.i,.k{stroke:#ed6d44;}.i,.k,.m{stroke-miterlimit:10;}.l{clip-path:url(#i);}.m{stroke:#fff;}.n{clip-path:url(#j);}.o{clip-path:url(#m);}.p{clip-path:url(#p);}.q{filter:url(#n);}.r{filter:url(#k);}.s{filter:url(#f);}.t{filter:url(#d);}.u{filter:url(#b);}</style><clipPath id="a"><rect class="a" width="730.585" height="730.585"/></clipPath><filter id="b" x="95" y="151" width="197" height="198" filterUnits="userSpaceOnUse"><feOffset dy="3" input="SourceAlpha"/><feGaussianBlur stdDeviation="3" result="c"/><feFlood flood-opacity="0.161"/><feComposite operator="in" in2="c"/><feComposite in="SourceGraphic"/></filter><filter id="d" x="404" y="36" width="197" height="198" filterUnits="userSpaceOnUse"><feOffset dy="3" input="SourceAlpha"/><feGaussianBlur stdDeviation="3" result="e"/><feFlood flood-opacity="0.161"/><feComposite operator="in" in2="e"/><feComposite in="SourceGraphic"/></filter><filter id="f" x="298" y="424" width="197" height="198" filterUnits="userSpaceOnUse"><feOffset dy="3" input="SourceAlpha"/><feGaussianBlur stdDeviation="3" result="g"/><feFlood flood-opacity="0.161"/><feComposite operator="in" in2="g"/><feComposite in="SourceGraphic"/></filter><clipPath id="h"><rect class="b" width="143.73" height="94.282"/></clipPath><clipPath id="i"><rect class="c" width="33.674" height="107.46"/></clipPath><clipPath id="j"><rect class="b" width="89.207" height="121.234"/></clipPath><filter id="k" x="0" y="452" width="197" height="198" filterUnits="userSpaceOnUse"><feOffset dy="3" input="SourceAlpha"/><feGaussianBlur stdDeviation="3" result="l"/><feFlood flood-opacity="0.161"/><feComposite operator="in" in2="l"/><feComposite in="SourceGraphic"/></filter><clipPath id="m"><rect class="c" width="150.367" height="89.818" transform="translate(0 0)"/></clipPath><filter id="n" x="549" y="272" width="197" height="198" filterUnits="userSpaceOnUse"><feOffset dy="3" input="SourceAlpha"/><feGaussianBlur stdDeviation="3" result="o"/><feFlood flood-opacity="0.161"/><feComposite operator="in" in2="o"/><feComposite in="SourceGraphic"/></filter><clipPath id="p"><rect class="c" width="129.843" height="118.01"/></clipPath></defs><g transform="translate(9)"><g transform="translate(141)"><g class="d"><path class="a" d="M365.291,0C163.546,0,0,163.547,0,365.29S163.546,730.582,365.291,730.582,730.583,567.036,730.583,365.29,567.037,0,365.291,0m0,656.022c-160.567,0-290.733-130.166-290.733-290.733S204.724,74.559,365.291,74.559,656.023,204.723,656.023,365.29,525.858,656.023,365.291,656.023" transform="translate(0 0.001)"/></g></g><g class="u" transform="matrix(1, 0, 0, 1, -9, 0)"><rect class="e" width="179" height="180" rx="20" transform="translate(104 157)"/></g><g class="t" transform="matrix(1, 0, 0, 1, -9, 0)"><rect class="f" width="179" height="180" rx="20" transform="translate(413 42)"/></g><g class="s" transform="matrix(1, 0, 0, 1, -9, 0)"><rect class="f" width="179" height="180" rx="20" transform="translate(307 430)"/></g><text class="g" transform="translate(133 315)"><tspan x="0" y="0">INSTALLING</tspan></text><text class="g" transform="translate(459 211)"><tspan x="0" y="0">DESIGN</tspan></text><g transform="translate(308.271 457.771)"><g class="h"><path class="i" d="M51.945,31.472c-.515-.027-1.141-.09-1.77-.09q-16.83-.01-33.663-.011a5.552,5.552,0,0,0-2.752.63C11.01,33.469,7.9,33.765,4.772,33.835c-1.394.031-2.792-.091-4.272-.146V22.308a12.144,12.144,0,0,1,4.849-.329,19.213,19.213,0,0,1,8.93,2.038,4,4,0,0,0,1.838.381q19.361.032,38.721.029a3.459,3.459,0,0,0,2.246-.8c2.9-2.2,5.839-4.36,8.764-6.535a8.344,8.344,0,0,1,4.547-2.13c0-1.355-.048-2.771.009-4.183a7.329,7.329,0,0,1,4.935-6.848,9.191,9.191,0,0,1,8.819.807c.264.165.491.374.741.555.2.142.406.272.8.535a9.24,9.24,0,0,1,16.367-.721c6.838-3.117,10.059-2.5,14.3,2.751.4-.212.829-.425,1.243-.653,5.809-3.213,12.978.056,13.315,6.11.106,1.934.016,3.876.016,5.933.643.083,1.132.184,1.624.2.972.031,1.946,0,2.919.018,3.431.078,6.065,1.744,7.213,4.615a9.708,9.708,0,0,1,.119,7.078c-1.132,3.156-3.793,4.86-7.736,4.988-1.281.042-2.564.007-4.013.007-.044.814-.1,1.425-.106,2.035-.009,3.66-.034,7.32,0,10.98.042,4.219-1.778,7.658-5.41,10.379-1.533,1.148-3.062,2.3-4.545,3.5-.4.323-.877.811-.889,1.233-.079,2.787-.041,5.577-.041,8.453l3.4.267c.52,1.331.587,19.236.109,20.846-1.9.331-55.747.281-57.4-.076V73.008l4.028-.239a12.406,12.406,0,0,0,.171-1.392c.017-2.345-.038-4.69.031-7.034a2.914,2.914,0,0,0-1.16-2.4,67.348,67.348,0,0,1-15.513-20.8,15.089,15.089,0,0,1-1.62-8.523,6.807,6.807,0,0,0,.015-.854C52.136,31.716,52.078,31.669,51.945,31.472Zm65.106,41.3V70.712c0-2.344.031-4.687-.015-7.03a2.14,2.14,0,0,1,.989-1.917q3.055-2.258,6.029-4.6a9.344,9.344,0,0,0,3.893-7.564q.007-5.916,0-11.831a14.1,14.1,0,0,0-.161-1.524c-.763-.034-1.341-.082-1.919-.081q-20.313.049-40.627.112a.257.257,0,0,0-.163.088c-.037.041-.039.105-.109.317a20.486,20.486,0,0,1,2.815,7.283,17.13,17.13,0,0,1-.117,7.849l-2.523-.3c0-1.473.019-2.725,0-3.977C85,39.4,80.166,33.194,71.62,30.147c-.359-.129-.841-.179-1.045-.415-.321-.371-.688-.907-.6-1.3a1.8,1.8,0,0,1,1.11-.972,5.657,5.657,0,0,1,1.732-.076c5.769,0,11.541.036,17.309-.034a9.211,9.211,0,0,0,3.542-.691c3.924-1.764,5.173-4.975,5.846-8.669-.828-.052-1.4-.118-1.968-.118-8.818-.007-17.634.01-26.451-.024a4.555,4.555,0,0,0-2.972,1c-2.592,1.987-5.246,3.913-7.868,5.871-4.48,3.346-6.289,9.559-4.175,14.363a60.011,60.011,0,0,0,7.052,11.808,67.767,67.767,0,0,0,8.9,9.729,3.519,3.519,0,0,1,1.4,3.005c-.139,2.337-.04,4.685-.04,7.029V72.77Zm3.427,18.447c.51-2.14.4-14.128-.08-15.35-2.276-.382-49.655-.271-51.021.119-.427,1.973-.323,13.907.167,15.231Zm-39.947-59.8a3.967,3.967,0,0,0,3.737,2.049q24.9-.061,49.792-.029A14.431,14.431,0,0,0,136,33.323a4.4,4.4,0,0,0,3.8-2.832,7.443,7.443,0,0,0,.018-5.4,4.462,4.462,0,0,0-4.351-2.885c-1.23-.043-2.465-.036-3.695-.008-1.551.036-1.645.138-1.943,1.771l3.116.272v2.615c-.928.044-1.751.118-2.574.119-9.466.008-18.931.028-28.4-.016a4.6,4.6,0,0,0-3.8,1.686h11.784c3.826,0,7.651-.027,11.476.007,3.8.035,7.609-.158,11.5.132v2.626Zm22.092-16.393c0,1.425-.051,2.854.011,4.278a5.356,5.356,0,0,0,5.568,4.93,5.265,5.265,0,0,0,5.526-4.759c.121-2.906.138-5.82.035-8.726a5.305,5.305,0,0,0-5.557-4.934,5.362,5.362,0,0,0-5.579,5.1C102.586,12.282,102.62,13.652,102.624,15.021Zm25.306,1.331h-.006c0-1.028.069-2.059-.013-3.081a5.35,5.35,0,0,0-5.425-4.708,5.273,5.273,0,0,0-5.62,4.479,39.265,39.265,0,0,0-.015,6.666,5.283,5.283,0,0,0,5.564,4.544,5.369,5.369,0,0,0,5.5-4.819C127.985,18.41,127.929,17.379,127.929,16.352Zm-73.9,10.7H51.606q-18.086,0-36.176.009a5.221,5.221,0,0,1-2.861-.765C9.885,24.7,6.806,24.511,3.5,24.666a43.315,43.315,0,0,0-.022,6.5c3.309.078,6.348-.064,8.993-1.611a5.615,5.615,0,0,1,3.036-.82q15.852.029,31.7.011c1.685,0,3.371-.034,5.057.006C53.4,28.776,53.96,28.358,54.025,27.056ZM99.551,15.151c0-2.753.149-5.317-.044-7.859-.176-2.32-2.645-4.118-5.306-4.2-2.594-.077-5.3,1.661-5.529,3.956-.258,2.641-.059,5.317-.059,8.1Zm-26.123.088c3.8.016,7.378.164,11.028-.109a42.874,42.874,0,0,0-.038-5.1c-.3-2.452-2.778-4.24-5.5-4.213-2.788.027-5.234,1.966-5.461,4.484C73.316,11.824,73.428,13.369,73.428,15.239Z" transform="translate(-0.094 -0.143)"/><path class="j" d="M129.8,79.689H86.136V77.573c0-2.343-.1-4.691.04-7.029a3.518,3.518,0,0,0-1.4-3,67.843,67.843,0,0,1-8.9-9.729A60.011,60.011,0,0,1,68.824,46c-2.115-4.8-.3-11.017,4.175-14.363,2.622-1.957,5.276-3.882,7.868-5.871a4.553,4.553,0,0,1,2.972-1c8.816.034,17.633.016,26.45.023.57,0,1.141.066,1.969.118-.673,3.694-1.921,6.9-5.846,8.669a9.227,9.227,0,0,1-3.542.692c-5.769.069-11.54.031-17.309.034a5.657,5.657,0,0,0-1.732.075,1.8,1.8,0,0,0-1.11.973c-.084.395.282.931.6,1.3.2.235.686.285,1.045.414,8.546,3.048,13.376,9.255,13.515,17.384.022,1.252,0,2.5,0,3.978l2.523.3a17.122,17.122,0,0,0,.116-7.849A20.461,20.461,0,0,0,97.709,43.6c.07-.212.072-.276.109-.317a.261.261,0,0,1,.163-.088q20.313-.06,40.627-.111c.577,0,1.155.047,1.918.081a14.353,14.353,0,0,1,.162,1.524q.018,5.916,0,11.832a9.349,9.349,0,0,1-3.893,7.564q-2.971,2.343-6.029,4.6a2.142,2.142,0,0,0-.989,1.917c.046,2.343.016,4.687.015,7.03Z" transform="translate(-12.841 -7.061)"/><path class="j" d="M136.467,121.183H85.533c-.489-1.324-.593-13.258-.167-15.232,1.367-.389,48.745-.5,51.02-.119.485,1.222.591,13.211.081,15.35m-6.453-12.417c-3.062-.056-5.516,2.015-5.527,4.664-.011,2.561,2.371,4.672,5.306,4.7,2.955.028,5.33-1.982,5.42-4.588.088-2.551-2.277-4.722-5.2-4.775" transform="translate(-16.084 -30.109)"/><path class="k" d="M99.182,40.062h52.4V37.436c-3.894-.29-7.7-.1-11.5-.131-3.825-.035-7.65-.008-11.476-.008H116.816a4.594,4.594,0,0,1,3.8-1.686c9.465.044,18.93.025,28.4.016.824,0,1.648-.074,2.575-.119V32.895l-3.117-.272c.3-1.633.393-1.736,1.944-1.771,1.23-.028,2.465-.035,3.695.008a4.462,4.462,0,0,1,4.351,2.885,7.447,7.447,0,0,1-.018,5.4,4.4,4.4,0,0,1-3.8,2.832,14.455,14.455,0,0,1-1.937.112q-24.9.009-49.791.029A3.967,3.967,0,0,1,99.182,40.062Z" transform="translate(-18.745 -8.79)"/><path class="j" d="M126.417,17.14c0-1.369-.036-2.739,0-4.107A5.361,5.361,0,0,1,132,7.93a5.3,5.3,0,0,1,5.557,4.934c.1,2.906.086,5.82-.035,8.726A5.266,5.266,0,0,1,132,26.349a5.356,5.356,0,0,1-5.568-4.931c-.062-1.424-.011-2.852-.012-4.278" transform="translate(-23.889 -2.261)"/><path class="j" d="M155.014,19.567c0,1.027.056,2.057-.011,3.082a5.37,5.37,0,0,1-5.5,4.819,5.282,5.282,0,0,1-5.564-4.544,39.187,39.187,0,0,1,.014-6.666,5.273,5.273,0,0,1,5.621-4.479,5.35,5.35,0,0,1,5.425,4.708c.082,1.022.013,2.054.013,3.081Z" transform="translate(-27.178 -3.358)"/><path class="k" d="M54.7,36.678c-.066,1.3-.625,1.719-1.753,1.693-1.684-.04-3.371-.007-5.057-.007q-15.852,0-31.7-.011a5.623,5.623,0,0,0-3.037.819c-2.645,1.547-5.683,1.689-8.992,1.611a43.11,43.11,0,0,1,.022-6.5c3.3-.155,6.379.036,9.065,1.633a5.213,5.213,0,0,0,2.86.766q18.088-.021,36.176-.009Z" transform="translate(-0.764 -9.764)"/><path class="j" d="M120.068,16.184H109.131c0-2.783-.2-5.459.059-8.1.224-2.295,2.934-4.033,5.529-3.956,2.662.079,5.13,1.877,5.306,4.2.193,2.543.044,5.106.044,7.859" transform="translate(-20.612 -1.176)"/><path class="j" d="M90.413,17.357c0-1.87-.112-3.414.024-4.942C90.664,9.9,93.11,7.958,95.9,7.931c2.726-.026,5.2,1.761,5.5,4.213a42.876,42.876,0,0,1,.038,5.1c-3.65.273-7.228.124-11.028.109" transform="translate(-17.08 -2.261)"/></g></g><g transform="translate(200.851 286.554) rotate(180)"><g class="l"><path class="m" d="M12.208.673V14.652a39.816,39.816,0,0,0,9.6.13C22.009,10.115,21.783,5.4,21.93.6a4.836,4.836,0,0,1,.863.17C28.855,3.293,32.622,7.744,33.369,14.3c.777,6.812-1.891,12.234-7.689,15.926a3.106,3.106,0,0,0-1.667,3.059q.073,20.672,0,41.344a2.863,2.863,0,0,0,1.524,2.822c5.625,3.576,8.354,8.82,7.76,15.438-.613,6.827-4.413,11.5-10.771,14.069a3.944,3.944,0,0,1-.652.111c-.217-4.739.055-9.44-.16-14.275-3.2-.229-6.281-.065-9.59-.106-.063,4.885,0,9.6-.04,14.5-.586-.205-1.037-.327-1.458-.516C4.623,103.962,1.073,99.366.562,92.78c-.531-6.852,2.353-12.123,8.256-15.64A2.3,2.3,0,0,0,10.1,74.835q-.033-21,.011-41.989a2.47,2.47,0,0,0-1.376-2.421C2.939,26.856.087,21.581.678,14.825c.6-6.9,4.471-11.586,10.9-14.147A2.914,2.914,0,0,1,12.208.673Zm12.162,102,.378.212c.457-.339.944-.646,1.368-1.022a13.853,13.853,0,0,0-3.094-22.871,2.4,2.4,0,0,1-1.576-2.558c.044-14.485.028-28.97.028-43.455V29.552c6.409-2.764,9.92-7.538,9.368-14.735-.328-4.291-2.461-7.648-6.3-10.229-.246,4.453.094,8.625-.215,12.856H9.734c-.044-.683-.111-1.258-.113-1.834-.011-3.123,0-6.246-.013-9.37,0-.452-.079-.9-.145-1.607C5.6,7.289,3.486,10.755,3.223,15.107,2.793,22.225,6.436,26.889,12.67,29.6v3.536q0,18.659,0,37.317c0,2.154-.028,4.308.007,6.462a1.486,1.486,0,0,1-1.108,1.711,6.479,6.479,0,0,0-1.164.553,13.9,13.9,0,0,0-2.8,22.567c.493.447,1.072.8,1.867,1.386.168-4.5-.053-8.672.141-12.913H24.29c.162,2.115.058,4.148.075,6.175C24.384,98.485,24.37,100.579,24.37,102.673Z" transform="translate(-0.163 -0.196)"/><path class="f" d="M25.6,104.61c0-2.093.014-4.187,0-6.281-.018-2.026.087-4.06-.076-6.174H10.843c-.195,4.241.027,8.409-.141,12.912-.8-.586-1.373-.938-1.867-1.385a13.9,13.9,0,0,1,2.8-22.568,6.482,6.482,0,0,1,1.165-.553,1.486,1.486,0,0,0,1.107-1.712c-.035-2.153-.007-4.307-.007-6.462q0-18.658,0-37.316V31.536c-6.234-2.709-9.877-7.373-9.447-14.49.263-4.352,2.379-7.819,6.239-10.475.067.7.145,1.155.146,1.607.012,3.123,0,6.246.013,9.37,0,.576.069,1.152.112,1.834H25.558c.31-4.231-.03-8.4.215-12.855,3.839,2.581,5.971,5.938,6.3,10.229.551,7.2-2.959,11.971-9.368,14.736v3.425c0,14.485.015,28.971-.028,43.455a2.4,2.4,0,0,0,1.576,2.559,13.852,13.852,0,0,1,3.094,22.87c-.424.378-.911.684-1.368,1.023l-.377-.213M15.03,55.7q0,4.032,0,8.065c0,3.763-.026,7.527.016,11.289a2.966,2.966,0,0,0,3.1,3.184,3.035,3.035,0,0,0,3.263-3.2c.016-.376.006-.753.006-1.129q0-18.146,0-36.29c0-.43.015-.862-.012-1.29A3.063,3.063,0,0,0,18.3,33.29a3.069,3.069,0,0,0-3.253,3.061c-.03.483-.013.968-.013,1.452q0,8.952,0,17.9m3.277,27.869C12.78,82.586,5.3,88.467,5.825,95.489H8.144c.86-5.913,4.286-9.056,10.163-9.644Zm10-64.687c-.868,6-4.234,9.181-10.133,9.746v2.3c5.251.912,12.9-4.574,12.44-11.9l-2.307-.149" transform="translate(-1.395 -2.133)"/><path class="m" d="M20.253,68.7q0-8.953,0-17.9c0-.484-.016-.969.013-1.451a3.183,3.183,0,0,1,6.36-.012c.028.429.012.86.012,1.29q0,18.146,0,36.29c0,.376.009.753-.006,1.129a3.035,3.035,0,0,1-3.263,3.2,2.965,2.965,0,0,1-3.1-3.183c-.042-3.763-.015-7.527-.017-11.29Q20.252,72.734,20.253,68.7Zm2.559.018c0,6.077-.01,12.154.017,18.23,0,.571-.336,1.566.569,1.584,1.072.02.664-1.043.665-1.642q.038-18.149,0-36.3c0-.573.337-1.571-.568-1.587-1.061-.018-.665,1.041-.668,1.644C22.8,56.673,22.812,62.7,22.812,68.719Z" transform="translate(-6.618 -15.13)"/><path class="m" d="M19.049,120.937v2.27c-5.877.588-9.3,3.732-10.163,9.644H6.567C6.041,125.831,13.522,119.95,19.049,120.937Z" transform="translate(-2.138 -39.497)"/><path class="m" d="M35.067,24.889l2.307.149c.46,7.328-7.189,12.814-12.44,11.9v-2.3C30.833,34.07,34.2,30.892,35.067,24.889Z" transform="translate(-8.151 -8.136)"/><path class="m" d="M24.033,70.041c0-6.022-.013-12.046.018-18.068,0-.6-.393-1.663.668-1.644.9.015.567,1.014.568,1.587q.032,18.15,0,36.3c0,.6.407,1.662-.665,1.642-.9-.018-.566-1.012-.569-1.584C24.023,82.194,24.033,76.118,24.033,70.041Z" transform="translate(-7.839 -16.451)"/></g></g><g transform="translate(449.13 57.844)"><g class="n"><path class="j" d="M56.278,10.662h7.046v4.588H88.774c.464,1.537.59,103.229.2,105.609-1.31.4-86.244.531-88.649.139C-.02,119.682-.147,18.144.223,15.405c.681-.042,1.4-.126,2.12-.127q10.565-.015,21.132-.006h2.332c.072-1.631.134-3.021.2-4.621h6.757C34.295,4,38.058.075,44.982,0a10.8,10.8,0,0,1,7.545,3.087,12.329,12.329,0,0,1,3.751,7.574M25.863,18.23H10.07c-.492,1.778-.47,91.523-.012,93.047,2.31.418,67.9.283,69.189-.143.352-2.39.235-91.442-.122-92.788-1.905-.384-14.246-.321-15.87.151V24.2c-3.007.429-35.9.273-37.39-.2ZM82.4,114.439c-25.347,0-50.327,0-75.482,0-.053-1.173-.132-2.081-.132-2.989q-.01-45.139-.012-90.277c0-.9-.083-1.807-.133-2.812H3.112v99.55c1.6.42,81.091.463,82.825.076a1.291,1.291,0,0,0,.172-.323,3.489,3.489,0,0,0,.1-.73q.008-48.661,0-97.322a5.5,5.5,0,0,0-.134-.909.412.412,0,0,0-.1-.152c-.039-.048-.085-.09-.177-.187H82.4ZM53.654,13.571a52.86,52.86,0,0,0-1.086-5.286A7.442,7.442,0,0,0,49.33,4.356a8.442,8.442,0,0,0-4.9-1.425A8.547,8.547,0,0,0,39,4.985c-2.587,2.162-3.277,5.091-3.092,8.488l-7,.192c-.046,2.7-.127,5.135.038,7.513,2.212.435,29.8.355,31.287-.071V13.571Z" transform="translate(0 0)"/><path class="j" d="M28.721,23.556v5.769c1.486.477,34.384.634,37.39.2V23.823c1.625-.473,13.965-.535,15.87-.151.357,1.347.474,90.4.122,92.789-1.286.426-66.879.56-69.189.142-.458-1.524-.48-91.268.012-93.046Zm6.472,27.29a9.859,9.859,0,0,1,1.494-.258c.329,0,.8.061.95.276a1.241,1.241,0,0,1-.042.99,10.358,10.358,0,0,1-.829,1.373l4.693,3.629c1.086-.2,1.174-1.815,2.254-1.218.413.229.433,1.16.644,1.768a1.772,1.772,0,0,0,.2.323h5.933c.149-.8.268-1.44.379-2.041,1.308-.318,1.384,1.055,2.346,1.295l4.781-3.59-.849-1.785,1.937.325,2.071-5.671-2.165-1.32,2.289-1.021c-.538-2.033-1.053-3.972-1.53-5.774-1.074-.308-2.043.778-2.831-.431l1.22-2.109c-1.667-1.288-3.256-2.518-4.9-3.788a13.486,13.486,0,0,1-1.109,1.214c-.255.218-.772.521-.888.429a1.989,1.989,0,0,1-.562-1.009,10.221,10.221,0,0,1-.189-1.457H44.474c-.168.888-.317,1.683-.545,2.9L41.8,31.766l-4.87,3.65c.282.657.481,1.122.745,1.738l-1.864-.235c-.714,1.984-1.391,3.868-2.052,5.707l2.2,1.267-2.336,1c.523,1.984,1.022,3.878,1.569,5.956M19.889,61.77c2.7.43,53.8.3,55.088-.1V59.391c-2.679-.447-53.71-.294-55.088.168Zm.025,27.844c2.528.477,53.768.343,55.095-.113V87.39c-1.833-.426-53.469-.4-55.095.031Zm18.069,18.5c2.264.457,35.732.338,36.986-.091v-2.281c-2.421-.385-35.589-.28-36.986.111ZM75.049,77.769H38v2.537c2.613.408,35.726.272,37.054-.144ZM47.017,70.453c2.216.424,26.63.331,27.975-.079V68.1c-2.216-.4-26.559-.317-27.975.1Zm27.97,25.514c-2.165-.39-26.573-.307-27.921.081v2.3c2.152.412,26.6.325,27.983-.1.022-.464.064-.953.059-1.442a6,6,0,0,0-.121-.845m-34.165.008c-2.128-.395-19.535-.317-20.893.081v2.28c2.023.416,19.547.343,20.893-.066Zm-20.907-25.5a4.973,4.973,0,0,0,.97.212q9.442.017,18.885,0a4.389,4.389,0,0,0,1.167-.351c0-.508.019-.878-.006-1.243s-.1-.7-.152-1.1H19.914Zm12.645,7.193c-4.285.022-8.431-.118-12.624.1v2.492c2.094.4,11.226.33,12.624-.076Zm-.026,30.576v-2.677c-4.239-.055-8.383-.081-12.6.016v2.661Z" transform="translate(-2.858 -5.326)"/><path class="i" d="M83.313,119.844V23.768h3.406c.092.1.138.138.177.187a.41.41,0,0,1,.1.151,5.5,5.5,0,0,1,.134.91q.007,48.661,0,97.322a3.5,3.5,0,0,1-.1.73,1.3,1.3,0,0,1-.172.322c-1.733.388-81.223.345-82.824-.076V23.766H7.555c.05,1,.133,1.907.133,2.811q.01,45.139.012,90.278c0,.909.078,1.816.132,2.988C32.986,119.845,57.966,119.845,83.313,119.844Z" transform="translate(-0.916 -5.405)"/><path class="i" d="M62.146,14.433h6.581V21.97c-1.488.426-29.075.506-31.287.071-.165-2.378-.083-4.81-.038-7.513l7-.192c-.185-3.4.5-6.326,3.092-8.488a8.547,8.547,0,0,1,5.432-2.054,8.442,8.442,0,0,1,4.9,1.425A7.442,7.442,0,0,1,61.06,9.147,52.86,52.86,0,0,1,62.146,14.433Z" transform="translate(-8.492 -0.862)"/><path class="i" d="M41.393,53.076C40.846,51,40.346,49.1,39.824,47.121l2.335-1-2.2-1.267,2.053-5.707,1.864.235-.745-1.738L48,34l2.125,2.125c.228-1.214.378-2.009.545-2.9h6.015a10.236,10.236,0,0,0,.189,1.457,1.988,1.988,0,0,0,.562,1.009c.117.092.634-.211.889-.429a13.491,13.491,0,0,0,1.109-1.214l4.9,3.788-1.22,2.109c.788,1.209,1.758.123,2.831.43.477,1.8.992,3.742,1.531,5.775l-2.289,1.02c.78.477,1.364.834,2.164,1.321-.679,1.862-1.366,3.742-2.071,5.671l-1.937-.325c.305.64.548,1.153.849,1.785l-4.781,3.59c-.961-.24-1.038-1.614-2.345-1.295-.111.6-.23,1.24-.379,2.041H50.756a1.772,1.772,0,0,1-.2-.323c-.209-.608-.231-1.54-.644-1.768-1.079-.6-1.167,1.018-2.254,1.218l-4.693-3.629a10.276,10.276,0,0,0,.829-1.373,1.243,1.243,0,0,0,.042-.99c-.152-.214-.621-.277-.949-.275A9.843,9.843,0,0,0,41.393,53.076Zm20.728-9.208-2.628-3.882c.051-.636.841-.98.426-1.806L58.66,39.329l-4.478-1.5c-.131-.542-.265-1.092-.4-1.641l-.267-.013c-.181.606-.361,1.212-.5,1.693L48.83,39.255c-.446-.341-.9-.686-1.344-1.032l-.24.177.717,1.549-2.387,3.086-1.734-.115c-.029.106-.057.211-.087.316l1.395.825c-.1,1.543-.2,2.95-.288,4.289l-1.717,1.075h1.927l2.643,4.039c-.219.532-.408.994-.6,1.457l.274.177,1.174-1.024a17.374,17.374,0,0,0,2.64,1.034c1.18.257,2.195.579,2.339,2.153.644-.693.294-1.67,1.316-1.877,1.255-.253,2.464-.731,3.827-1.153a10.508,10.508,0,0,0,.863.759c.1.073.313-.012.566-.032-.248-.563-.461-1.048-.646-1.465.843-1.146,1.605-2.184,2.385-3.245l1.554.165c.032-.081.064-.162.1-.244l-1.3-1.013c.09-1.487.175-2.887.255-4.214l1.722-1.075Z" transform="translate(-9.057 -7.556)"/><path class="i" d="M22.045,72.28V70.07c1.378-.462,52.409-.614,55.088-.168v2.283C75.848,72.579,24.743,72.711,22.045,72.28Z" transform="translate(-5.014 -15.837)"/><path class="i" d="M22.077,108.354v-2.193c1.626-.431,53.262-.457,55.095-.031v2.111C75.845,108.7,24.6,108.832,22.077,108.354Z" transform="translate(-5.021 -24.067)"/><path class="i" d="M45.465,132.273v-2.261c1.4-.392,34.564-.5,36.986-.111v2.281C81.2,132.61,47.73,132.729,45.465,132.273Z" transform="translate(-10.34 -29.487)"/><path class="i" d="M82.536,93.768v2.393c-1.327.416-34.441.552-37.054.144V93.768Z" transform="translate(-10.344 -21.325)"/><path class="i" d="M57.159,83.527V81.269c1.416-.414,25.759-.5,27.975-.1v2.277C83.789,83.858,59.375,83.952,57.159,83.527Z" transform="translate(-12.999 -18.401)"/><path class="i" d="M85.143,117.248a6.114,6.114,0,0,1,.121.845c.005.488-.038.977-.059,1.442-1.384.422-25.831.508-27.984.1v-2.3C58.569,116.94,82.978,116.857,85.143,117.248Z" transform="translate(-13.013 -26.607)"/><path class="i" d="M42.991,117.257v2.295c-1.346.409-18.87.483-20.894.066v-2.281C23.455,116.94,40.862,116.862,42.991,117.257Z" transform="translate(-5.025 -26.608)"/><path class="i" d="M22.078,83.595V81.11H42.941c.057.4.128.749.152,1.1s.006.734.006,1.242a4.392,4.392,0,0,1-1.167.352q-9.441.03-18.885,0A5.022,5.022,0,0,1,22.078,83.595Z" transform="translate(-5.021 -18.446)"/><path class="i" d="M34.729,93.629v2.519c-1.4.406-10.529.471-12.624.076V93.731C26.3,93.511,30.443,93.651,34.729,93.629Z" transform="translate(-5.027 -21.288)"/><path class="i" d="M34.7,132.411H22.1V129.75c4.218-.1,8.362-.071,12.6-.016Z" transform="translate(-5.026 -29.493)"/><path class="j" d="M63.1,44.736h2.06l-1.722,1.075c-.08,1.327-.165,2.726-.255,4.214l1.3,1.013c-.032.082-.065.163-.1.244l-1.554-.165c-.78,1.061-1.542,2.1-2.385,3.245.185.417.4.9.646,1.466-.253.019-.467.1-.566.032a10.5,10.5,0,0,1-.863-.759c-1.363.422-2.572.9-3.827,1.153-1.021.207-.671,1.184-1.315,1.877-.144-1.575-1.16-1.9-2.339-2.153a17.374,17.374,0,0,1-2.64-1.034l-1.174,1.024-.274-.177.6-1.457c-.828-1.267-1.7-2.594-2.642-4.038H44.122l1.717-1.076c.09-1.339.185-2.747.288-4.289l-1.4-.825c.03-.105.059-.21.087-.315l1.734.114,2.387-3.086-.717-1.549.239-.176,1.344,1.031,4.182-1.383c.143-.481.324-1.087.5-1.693l.267.014c.134.549.267,1.1.4,1.641l4.477,1.5L60.9,39.049c.416.825-.375,1.17-.426,1.806.807,1.194,1.663,2.458,2.628,3.882m-8.5,8.858a6.056,6.056,0,0,0,6.149-6.05,6.128,6.128,0,0,0-6.082-6.154,6.066,6.066,0,0,0-6.12,6.088A5.984,5.984,0,0,0,54.6,53.594" transform="translate(-10.034 -8.425)"/><path class="j" d="M55.9,54.873a5.984,5.984,0,0,1-6.052-6.116,6.066,6.066,0,0,1,6.12-6.088,6.129,6.129,0,0,1,6.082,6.154,6.055,6.055,0,0,1-6.149,6.05m0-9.333a3.217,3.217,0,0,0-3.19,3.188,3.177,3.177,0,0,0,3.259,3.289,3.214,3.214,0,0,0,3.209-3.17A3.271,3.271,0,0,0,55.9,45.54" transform="translate(-11.337 -9.704)"/><path class="j" d="M56.744,46.385a3.271,3.271,0,0,1,3.277,3.307,3.214,3.214,0,0,1-3.209,3.17,3.177,3.177,0,0,1-3.259-3.289,3.217,3.217,0,0,1,3.19-3.188" transform="translate(-12.179 -10.549)"/></g></g><text class="g" transform="translate(371 581)"><tspan x="0" y="0">REPAIR</tspan></text><g transform="translate(-816 -317)"><g class="r" transform="matrix(1, 0, 0, 1, 807, 317)"><rect class="f" width="179" height="180" rx="20" transform="translate(9 458)"/></g><g transform="translate(830 792)"><g class="o"><path class="e" d="M66.768,0c-.873,10.824-1.717,21.3-2.558,31.724,2.037.593,19.1.66,21.719.093-.432-5.186-.879-10.417-1.3-15.648S83.8,5.688,83.379.263a12.4,12.4,0,0,1,1.828.012,72.552,72.552,0,0,1,14.478,4.19,3.116,3.116,0,0,1,2.15,2.792c1.679,11.143,3.448,22.271,5.193,33.4.072.461.189.915.341,1.632l3.422-.539c-.882-7.708-2.426-15.263-3.374-23.019,1.2-.187,1.933.5,2.708.939a74.788,74.788,0,0,1,25.032,23.015,84.47,84.47,0,0,1,14.708,40.33c.22,2.2.329,4.407.5,6.8H.262C-.989,83.926,2.229,64.7,9.975,50.785c7.644-13.731,18.009-24.676,32.4-32.511-1.153,8.1-2.777,15.551-4,23.382,1.151.232,2.191.44,3.51.7.277-1.4.536-2.624.755-3.851,1.83-10.227,3.7-20.445,5.437-30.689A4.564,4.564,0,0,1,51.295,3.9,68.318,68.318,0,0,1,64.175.218c.7-.125,1.417-.123,2.593-.218M56.738,78.671H53.522q-19.9,0-39.795-.01c-1,0-2-.129-3.171-.21.528-7.75,3.573-14.409,6.841-21.2l-2.925-1.593c-3.709,5.059-9.37,21.023-7.12,26.475H56.738Z"/></g></g><text class="g" transform="translate(853 930)"><tspan x="0" y="0">INSPECTION</tspan></text></g><g transform="translate(-160 -103)"><g class="q" transform="matrix(1, 0, 0, 1, 151, 103)"><rect class="e" width="179" height="180" rx="20" transform="translate(558 278)"/></g><g transform="translate(734 394)"><g class="p"><path class="m" d="M61.256,79.078l-4-5.245-7.487,2.521v6.053c-1.437.572-11.919.726-14.7.245V76.336c-1.5-.471-2.79-.843-4.055-1.281S28.5,74.106,27.1,73.569c-1.323,1.668-2.649,3.34-4.143,5.226L11.339,69.821c1.44-1.887,2.768-3.626,4.061-5.322l-4.521-6.969L4.4,59.156C2.961,54.462,1.871,49.771.61,45l6.781-1.868c.118-2.118.23-4.134.353-6.339L1.129,34.2c1.7-4.622,3.345-9.094,5.047-13.719l6.851,2.45,3.1-4.02-4.355-5.952L23.489,4.189c1.564,2.038,3.009,3.92,4.505,5.867L35,7.752V.5H49.717c0,1.871,0,3.638,0,5.4-.006,2.207.081,1.944,1.891,2.474s3.606,1.2,5.631,1.889L61.8,4.455,73.4,13.4l-4.364,5.812,4.453,6.6L80.464,24.1c1.245,4.763,2.449,9.374,3.7,14.146L77.434,40.1c-.109,2.056-.219,4.117-.341,6.408,2.114.811,4.263,1.636,6.55,2.515-1.7,4.622-3.35,9.1-5.058,13.74l-6.42-2.29c-1.066,1.45-2.075,2.822-3.176,4.319l4,5.491ZM46.943,80V74.2l11.272-3.816,3.632,4.688,7.127-5.346-3.567-4.995,5.614-7.686,5.894,2.043,3.069-8.366-5.851-2.279c.133-3.588.257-6.951.388-10.5l6.171-1.731-2.268-8.623L72.164,29.1l-6.732-9.9L69.4,13.944c-2.4-1.889-4.693-3.673-7.1-5.48l-4.1,5.242-11.2-3.8c-.347-2.1.215-4.389-.324-6.58h-8.82V9.9L27.012,13.506,22.933,8.19c-2.448,1.793-4.791,3.513-7.162,5.4l4,5.395-5.648,7.356c-2.012-.7-4.023-1.4-5.989-2.088a28.651,28.651,0,0,0-3.014,8.428L10.8,34.849c-.214,3.6-.417,7.009-.624,10.49l-6.1,1.71c.774,2.959,1.5,5.723,2.257,8.623L12.5,54.2c1.079,1.918,1.958,3.682,3.026,5.324s2.318,3.153,3.561,4.82c-1.209,1.617-2.414,3.229-3.717,4.974,2.4,1.867,4.685,3.674,7.1,5.446l3.638-4.608,11.835,4.115V80Z" transform="translate(-0.141 -0.115)"/><path class="m" d="M93.817,122.236l3.536-3.782-2.722-5.7-4.981.3c-.67-4.065-.655-8.1-1.095-12.318,1.23-.1,2.308-.171,3.381-.289,1.471-.161,1.8-.014,2.2-1.843.414-1.91,1.175-3.743,1.849-5.809L92.3,89.424l8.107-9.347c1.325,1.115,2.535,2.131,3.683,3.1l8.85-4.08V74.433c4.174-.211,8.138-.077,12.338-.095.082,1.715.161,3.333.237,4.905l6.617,2.689,3.531-3.506,8.943,8.543c-1.195,1.3-2.3,2.5-3.407,3.7l2.7,5.776,5.038-.276c.307,4.137.6,8.145.913,12.291l-5.008.519c-.816,2.428-1.614,4.8-2.475,7.363l3.775,3.462-8.1,9.331-4-3.354c-.455.233-.873.464-1.307.666-1.834.856-3.641,1.78-5.518,2.531-1.758.7-1.793.623-1.8,2.6,0,1.026,0,2.052,0,3.185H112.979V129.71l-6.6-2.652-3.466,3.853Zm22.058-44.9c0,1.124.017,2.033,0,2.941-.035,1.472-.038,1.5-1.481,1.834a23.447,23.447,0,0,0-9.124,4.261c-.334.255-.715.448-1.15.716l-3.4-2.828-4.234,4.871,3.4,3.145a26.3,26.3,0,0,0-3.6,10.65l-4.551.569c.171,2.145.328,4.13.495,6.237h4.342c1.5,3.114,2.906,6.032,4.411,9.155-.868.965-1.872,2.078-2.923,3.246,1.583,1.617,3.079,3.025,4.865,4.7,1.08-1.345,2-2.49,2.721-3.391,3.6,1.45,6.819,2.745,10.135,4.079.075,1.332.155,2.78.239,4.267h6.337c.082-1.576.159-3.026.244-4.645a24.516,24.516,0,0,0,11.464-5.261l3.663,3.07,4.231-4.828c-1.23-1.175-2.317-2.212-3.476-3.319a25.128,25.128,0,0,0,3.591-10.534l4.644-.551c-.179-2.192-.342-4.181-.513-6.281-.931,0-1.66-.034-2.384.006-2.625.146-2.133-.071-2.849-1.893s-1.62-3.575-2.478-5.34c-.291-.6-.7-1.137-1.112-1.8l3.025-3.353c-1.619-1.576-3.056-3.049-4.711-4.375L132.5,85.8a25.044,25.044,0,0,0-9.078-3.806c-.763-.14-.9-.7-.941-1.371-.07-1.074.241-2.2-.358-3.286Z" transform="translate(-20.415 -17.132)"/><path class="f" d="M47.981,80.843h-9V75.119L27.145,71l-3.637,4.609c-2.418-1.772-4.7-3.58-7.1-5.447,1.3-1.744,2.508-3.356,3.718-4.973-1.243-1.667-2.5-3.183-3.562-4.821s-1.947-3.406-3.026-5.324L7.37,56.518,5.112,47.895l6.1-1.71c.207-3.481.409-6.89.623-10.489L6.153,33.529c.036-1.485,1.924-6.774,3.014-8.428l5.99,2.088L20.8,19.832l-3.994-5.394c2.371-1.888,4.713-3.61,7.161-5.4l4.079,5.315,10.839-3.6V4.172h8.82c.54,2.191-.022,4.483.324,6.58l11.2,3.8,4.1-5.242c2.407,1.807,4.7,3.591,7.1,5.48l-3.968,5.258,6.732,9.9,6.26-1.517,2.268,8.623L75.56,38.783c-.132,3.55-.255,6.914-.388,10.5l5.851,2.279c-1.02,2.778-2,5.459-3.069,8.366l-5.895-2.044-5.614,7.687c1.088,1.522,2.284,3.2,3.567,4.994l-7.127,5.346-3.631-4.688L47.981,75.042ZM43.463,60.384A17.929,17.929,0,1,0,25.481,42.511,17.862,17.862,0,0,0,43.463,60.384M43.247,17.6c-9.282.449-16.477,4.285-21.076,12.127-5.225,8.909-4.968,18.026.739,26.65,4.718,7.128,11.636,10.6,20.311,10.937V64.534a22.222,22.222,0,0,1-15.055-6.247,21.4,21.4,0,0,1-6.692-14.928,21.291,21.291,0,0,1,4.641-14.431c4.326-5.506,10.152-8.148,17.131-8.558Z" transform="translate(-1.178 -0.962)"/><path class="f" d="M116.828,78.241h6.25c.6,1.086.289,2.212.358,3.287.044.673.179,1.23.941,1.37a25.042,25.042,0,0,1,9.079,3.806l3.19-3.112c1.656,1.326,3.092,2.8,4.711,4.375l-3.024,3.353c.415.665.82,1.2,1.111,1.8.859,1.765,1.763,3.516,2.479,5.34s.224,2.039,2.849,1.893c.723-.04,1.453-.005,2.384-.005.171,2.1.334,4.089.513,6.28l-4.645.552a25.129,25.129,0,0,1-3.591,10.533l3.477,3.319-4.231,4.828-3.663-3.069a24.527,24.527,0,0,1-11.463,5.26c-.085,1.619-.162,3.069-.245,4.645h-6.337c-.083-1.487-.164-2.936-.239-4.267L106.6,124.352l-2.722,3.39c-1.786-1.677-3.281-3.086-4.865-4.7l2.924-3.245-4.411-9.156H93.185c-.167-2.106-.325-4.09-.5-6.237l4.551-.569a26.288,26.288,0,0,1,3.6-10.651l-3.4-3.145,4.234-4.871,3.4,2.828c.436-.269.816-.462,1.15-.716a23.445,23.445,0,0,1,9.124-4.261c1.443-.331,1.447-.362,1.481-1.834.021-.908,0-1.817,0-2.941m12.518,27.193a9.161,9.161,0,1,0-9.044,9.28,9.182,9.182,0,0,0,9.044-9.28" transform="translate(-21.368 -18.037)"/><path class="m" d="M49.565,66.481A17.929,17.929,0,1,1,67.486,48.528,17.816,17.816,0,0,1,49.565,66.481Zm-.1-33.012A15.111,15.111,0,1,0,64.637,48.563,15.152,15.152,0,0,0,49.469,33.469Z" transform="translate(-7.281 -7.06)"/><path class="m" d="M47.238,21.625v2.767c-6.979.41-12.805,3.052-17.131,8.558a21.291,21.291,0,0,0-4.641,14.431A21.4,21.4,0,0,0,32.157,62.31a22.222,22.222,0,0,0,15.055,6.247v2.782C38.537,71.006,31.62,67.531,26.9,60.4c-5.708-8.624-5.964-17.742-.739-26.65C30.76,25.91,37.956,22.074,47.238,21.625Z" transform="translate(-5.169 -4.985)"/><path class="m" d="M134.84,110.846a9.161,9.161,0,1,1-9.205-9.13A9.161,9.161,0,0,1,134.84,110.846Zm-2.965.085a6.2,6.2,0,1,0-6.21,6.244A6.278,6.278,0,0,0,131.875,110.931Z" transform="translate(-26.862 -23.449)"/><path class="m" d="M50.306,34.322a15.111,15.111,0,1,1-15.093,15.2A15.08,15.08,0,0,1,50.306,34.322Z" transform="translate(-8.118 -7.912)"/><path class="m" d="M132.76,111.815a6.2,6.2,0,1,1-6.2-6.266A6.254,6.254,0,0,1,132.76,111.815Z" transform="translate(-27.747 -24.333)"/></g></g><text class="g" transform="translate(729 539)"><tspan x="0" y="0">MAINTENANCE </tspan></text></g></g></svg>