<svg xmlns="http://www.w3.org/2000/svg" xmlns:xlink="http://www.w3.org/1999/xlink" width="328.48" height="275.164" viewBox="0 0 328.48 275.164"><defs><style>.a{fill:rgba(186,187,182,0.32);}.b{fill:#babcb6;}.c{fill:none;}.d{clip-path:url(#a);}.e{clip-path:url(#b);}.f{clip-path:url(#c);}.g{fill:#ccd7e2;}.h{fill:#cb0303;}.i{fill:#fff;}.j{fill:#2d2f30;}.k{fill:#bc9c71;}.l{fill:#9e8261;}.m{opacity:0.22;}.n{clip-path:url(#e);}.o{clip-path:url(#f);}.p{fill:#3f4344;}.q{opacity:0.08;}.r{clip-path:url(#g);}.s{clip-path:url(#h);}</style><clipPath id="a"><rect class="a" width="297.684" height="130.275"/></clipPath><clipPath id="b"><rect class="b" width="306.756" height="130.275"/></clipPath><clipPath id="c"><rect class="c" width="256.044" height="205.973"/></clipPath><clipPath id="e"><rect class="c" width="21.611" height="7.205"/></clipPath><clipPath id="f"><rect class="c" width="8.302" height="2.739"/></clipPath><clipPath id="g"><rect class="c" width="19.248" height="25.383"/></clipPath><clipPath id="h"><rect class="c" width="6.084" height="6.392"/></clipPath></defs><g transform="translate(-1114 -754.956)"><g transform="translate(615 4)"><g transform="translate(504.285 895.844)"><g class="d"><path class="a" d="M297.684,10.09a16.508,16.508,0,0,0-7.578-7.631C285.955.479,281.376,0,276.543,0Q205.178.03,133.812.015,76.691.015,19.569,0c-7.54-.006-13.624,1.853-17.6,6.6-2.15,2.569-2.6,5.27-1.068,8.168C19.542,50.044,38.079,85.347,56.788,120.6c3.682,6.938,9.723,9.694,19.384,9.671,48.643-.115,97.285-.051,145.928-.053,9.257,0,16.076-3.358,19.363-9.586q27.466-52.045,54.9-104.1c.47-.89.883-1.8,1.322-2.694Z" transform="translate(0 0)"/></g></g><g transform="translate(499 887.844)"><g class="e"><path class="b" d="M306.756,10.09a16.754,16.754,0,0,0-7.809-7.631C294.669.479,289.951,0,284.97,0Q211.43.03,137.89.015,79.028.015,20.165,0C12.395-.006,6.126,1.854,2.034,6.6-.181,9.169-.645,11.87.933,14.769,20.138,50.044,39.239,85.347,58.518,120.6c3.794,6.938,10.02,9.694,19.975,9.671q75.188-.172,150.375-.053c9.539,0,16.566-3.358,19.953-9.586q28.3-52.045,56.572-104.1c.484-.89.909-1.8,1.363-2.694Z" transform="translate(0 0)"/></g></g></g><g class="f" transform="translate(1186.437 754.956)"><g class="f"><path class="g" d="M59.413,32.263V26.406a4.056,4.056,0,1,0-8.111,0v5.857a4.056,4.056,0,1,0,8.111,0" transform="translate(26.461 11.527)"/><path class="g" d="M55.355,37.8A4.053,4.053,0,0,0,51.3,41.857V47.71a4.056,4.056,0,1,0,8.111,0V41.857A4.055,4.055,0,0,0,55.355,37.8" transform="translate(26.461 19.496)"/><path class="g" d="M55.355,53.246A4.053,4.053,0,0,0,51.3,57.3v5.859a4.056,4.056,0,1,0,8.111,0V57.3a4.055,4.055,0,0,0-4.058-4.058" transform="translate(26.461 27.464)"/><path class="g" d="M59.413,15.881v-3.12a4.056,4.056,0,1,0-8.111,0v3.12a4.056,4.056,0,0,0,8.111,0" transform="translate(26.461 4.489)"/><path class="g" d="M35.981,46.15l2.478-5.305a4.056,4.056,0,0,0-7.353-3.427l-2.478,5.305a4.056,4.056,0,0,0,7.353,3.427" transform="translate(14.569 18.09)"/><path class="g" d="M42.508,32.154l2.478-5.313a4.054,4.054,0,1,0-7.347-3.43l-2.484,5.313a4.057,4.057,0,0,0,7.353,3.43" transform="translate(17.937 10.867)"/><path class="g" d="M29.45,60.157l2.478-5.31a4.057,4.057,0,1,0-7.353-3.43L22.1,56.73a4.056,4.056,0,0,0,7.353,3.427" transform="translate(11.202 25.311)"/><path class="g" d="M49.042,17.3l1.319-2.827a4.055,4.055,0,0,0-7.35-3.429l-1.32,2.825a4.056,4.056,0,1,0,7.352,3.43" transform="translate(21.306 4.489)"/><path class="g" d="M81.6,49.452a4.06,4.06,0,0,0-1.968,5.395l2.478,5.31A4.056,4.056,0,0,0,89.46,56.73l-2.477-5.313A4.051,4.051,0,0,0,81.6,49.452" transform="translate(40.877 25.311)"/><path class="g" d="M68.541,21.45a4.055,4.055,0,0,0-1.967,5.393l2.478,5.311A4.056,4.056,0,0,0,76.4,28.726l-2.477-5.313a4.046,4.046,0,0,0-5.386-1.963" transform="translate(34.142 10.867)"/><path class="g" d="M75.067,35.454a4.055,4.055,0,0,0-1.963,5.39l2.474,5.305a4.056,4.056,0,1,0,7.352-3.427l-2.472-5.305a4.052,4.052,0,0,0-5.39-1.963" transform="translate(37.51 18.09)"/><path class="g" d="M60.808,14.477,62.126,17.3a4.057,4.057,0,0,0,7.353-3.429l-1.319-2.827a4.057,4.057,0,0,0-7.353,3.429" transform="translate(31.168 4.489)"/><path class="h" d="M147.025,0,136.3,33.257H20.424L10.767,0" transform="translate(5.554 0)"/><path class="h" d="M63.6,133.5S27.657,136.36,45,96.125c0,0,0,15.2,3.755,13.231,0,0,13.591-22.173,5.722-37.193,0,0,20.923,15.02,21.64,26.466,0,0,2.86.537,2.145-7.87,0,0,25.215,29.951-9.656,42.782" transform="translate(20.773 37.221)"/><path class="i" d="M60.588,117.148s-15.957,1.272-8.257-16.592c0,0,0,6.745,1.666,5.874,0,0,6.036-9.844,2.542-16.513,0,0,9.29,6.668,9.607,11.749,0,0,1.272.238.952-3.494,0,0,11.2,13.3-4.285,19" transform="translate(25.909 46.379)"/><path class="j" d="M13.272,105.908H0v4.425s5.834-.3,9.707,1.305a30.39,30.39,0,0,1,9.122,6.08l1.569-5.9Z" transform="translate(0 54.627)"/><path class="k" d="M110.419,109.948l-.215,4.366c-.083,1.73.941,3.063,2.19,2.848,5.261-.914,19.195-2.71,40.16-.906,27.156,2.337,36.693,10.921,41.692,6.976,5.2-4.1,7.23-13.838,1.523-17.459-11.018-6.986-71.715-.1-83.307,1.3-1.082.13-1.971,1.382-2.043,2.88" transform="translate(56.84 52.968)"/><path class="l" d="M197.828,106.1a13.923,13.923,0,0,1-4.9,11.6c-5,3.947-14.536-4.637-41.691-6.974-20.966-1.805-34.9-.008-40.161.9a1.5,1.5,0,0,1-.882-.111l-.052,1.028c-.083,1.73.941,3.063,2.19,2.848,5.26-.914,19.195-2.71,40.16-.906,27.156,2.337,36.693,10.921,41.692,6.976,4.385-3.464,6.519-10.936,3.647-15.361" transform="translate(56.807 54.727)"/><g class="m" transform="translate(229.342 157.518)"><g class="n"><path class="i" d="M151.313,105.336a2.113,2.113,0,0,0,.709,1.811,2.9,2.9,0,0,0,1.529.546c3.642.485,7.446-.194,10.949,1.082,1.8.653,3.473,1.811,5.317,2.236a2.567,2.567,0,0,0,2.08-.232,2.52,2.52,0,0,0,.976-2.4,2.583,2.583,0,0,0-.568-1.105c-1.984-2.466-4.964-2.68-7.717-2.78-1.734-.062-13.01-1.693-13.275.846" transform="translate(-151.301 -103.917)"/></g></g><g class="m" transform="translate(218.634 157.502)"><g class="o"><path class="i" d="M144.845,104.318a.718.718,0,0,0-.564.529,1.489,1.489,0,0,0-.027.59,1.263,1.263,0,0,0,1.422,1.167q2.763.02,5.524.042a1.257,1.257,0,0,0,.991-.308,1.183,1.183,0,0,0,.32-.6c.55-2.8-6.962-1.6-7.665-1.417" transform="translate(-144.237 -103.907)"/></g></g><path class="p" d="M8.756,105.908a95.284,95.284,0,0,0,15.925,26.83,81.4,81.4,0,0,0,23.363,18.608h72.731a81.4,81.4,0,0,0,23.363-18.608,95.284,95.284,0,0,0,15.925-26.83Z" transform="translate(4.516 54.627)"/><path class="j" d="M110.338,105.908a95.284,95.284,0,0,1-15.925,26.83A81.4,81.4,0,0,1,71.05,151.346H88.642a81.418,81.418,0,0,0,23.365-18.608,95.3,95.3,0,0,0,15.923-26.83Z" transform="translate(36.647 54.627)"/><path class="j" d="M34.674,136.731h72.731l-13.2-2.49Z" transform="translate(17.885 69.241)"/><path class="j" d="M13.862,108.6h137.56l-11.614,12.092s-1.226-4.011-18.556-7.064c-18.2-3.206-107.39-5.028-107.39-5.028" transform="translate(7.15 56.017)"/><path class="p" d="M111.049,106.644l19.971-2.163v10.233l-27.239,6.7Z" transform="translate(53.53 53.891)"/><path class="j" d="M102.74,121.791a53.84,53.84,0,0,1,13.613-5.5c6-1.29,15.2-3.739,15.2-3.739V108.67a109.052,109.052,0,0,0-12.408,1.719c-7.114,1.378-14.229,3.191-14.229,3.191Z" transform="translate(52.993 56.052)"/><g class="q" transform="translate(26.587 167.243)"><g class="r"><path class="i" d="M18.011,116.229A40.726,40.726,0,0,0,32.466,134.66a4.686,4.686,0,0,0,2.442,1.055,1.751,1.751,0,0,0,1.88-1.522c0-.794-.7-1.382-1.316-1.887a21.328,21.328,0,0,1-6.671-9.778c-.806-2.465-1.163-5.084-2.265-7.43-.96-2.046-3.451-5.014-6.024-4.746-3.185.33-3.426,3.5-2.5,5.878" transform="translate(-17.54 -110.333)"/></g></g><g class="q" transform="translate(46.621 194.702)"><g class="s"><path class="i" d="M30.83,129.084a1.568,1.568,0,0,0-.05.769,6.293,6.293,0,0,0,3.661,4.67,2.857,2.857,0,0,0,1.064.315,1.269,1.269,0,0,0,1.014-.374,1.462,1.462,0,0,0,.315-.878,3.737,3.737,0,0,0-.84-2.45,11.167,11.167,0,0,0-1.907-1.827c-.65-.529-2.759-1.517-3.257-.226" transform="translate(-30.757 -128.449)"/></g></g></g></g></g></svg>