<svg xmlns="http://www.w3.org/2000/svg" xmlns:xlink="http://www.w3.org/1999/xlink" width="306.756" height="263.609" viewBox="0 0 306.756 263.609"><defs><style>.a{fill:rgba(186,187,182,0.32);}.b{fill:#babcb6;}.c{fill:none;}.d{clip-path:url(#a);}.e{clip-path:url(#b);}.f{fill:#cb0303;}.g{clip-path:url(#c);}.h{fill:#fff;}</style><clipPath id="a"><rect class="a" width="297.684" height="130.275"/></clipPath><clipPath id="b"><rect class="b" width="306.756" height="130.275"/></clipPath><clipPath id="c"><rect class="c" width="142.271" height="190.891"/></clipPath></defs><g transform="translate(-1114 -766.51)"><g transform="translate(615 4)"><g transform="translate(504.285 895.844)"><g class="d"><path class="a" d="M297.684,10.09a16.508,16.508,0,0,0-7.578-7.631C285.955.479,281.376,0,276.543,0Q205.178.03,133.812.015,76.691.015,19.569,0c-7.54-.006-13.624,1.853-17.6,6.6-2.15,2.569-2.6,5.27-1.068,8.168C19.542,50.044,38.079,85.347,56.788,120.6c3.682,6.938,9.723,9.694,19.384,9.671,48.643-.115,97.285-.051,145.928-.053,9.257,0,16.076-3.358,19.363-9.586q27.466-52.045,54.9-104.1c.47-.89.883-1.8,1.322-2.694Z" transform="translate(0 0)"/></g></g><g transform="translate(499 887.844)"><g class="e"><path class="b" d="M306.756,10.09a16.754,16.754,0,0,0-7.809-7.631C294.669.479,289.951,0,284.97,0Q211.43.03,137.89.015,79.028.015,20.165,0C12.395-.006,6.126,1.854,2.034,6.6-.181,9.169-.645,11.87.933,14.769,20.138,50.044,39.239,85.347,58.518,120.6c3.794,6.938,10.02,9.694,19.975,9.671q75.188-.172,150.375-.053c9.539,0,16.566-3.358,19.953-9.586q28.3-52.045,56.572-104.1c.484-.89.909-1.8,1.363-2.694Z" transform="translate(0 0)"/></g></g></g><g transform="translate(1204.492 766.51)"><rect class="f" width="142.273" height="41.054" transform="translate(0 0.002)"/><g transform="translate(0 0)"><g class="g"><path class="h" d="M23.31,12.846a6.371,6.371,0,1,1-6.37-6.368,6.371,6.371,0,0,1,6.37,6.368" transform="translate(11.374 6.974)"/><path class="f" d="M103.528,19.772,96.452,41.713H20.006l-6.37-21.941" transform="translate(14.677 21.283)"/><path class="f" d="M52.44,137.152S1.289,141.224,25.975,83.966c0,0,0,21.632,5.342,18.831,0,0,19.341-31.555,8.144-52.931,0,0,29.775,21.376,30.793,37.663,0,0,4.072.764,3.054-11.2,0,0,35.882,42.624-13.741,60.883" transform="translate(20.712 53.675)"/><path class="h" d="M44.327,107.062s-22.709,1.809-11.75-23.612c0,0,0,9.6,2.371,8.359,0,0,8.588-14.009,3.617-23.5,0,0,13.22,9.489,13.671,16.721,0,0,1.809.338,1.356-4.971,0,0,15.93,18.922-6.1,27.03" transform="translate(31.848 73.529)"/></g></g></g></g></svg>