<svg xmlns="http://www.w3.org/2000/svg" xmlns:xlink="http://www.w3.org/1999/xlink" width="306.756" height="196.624" viewBox="0 0 306.756 196.624"><defs><style>.a{fill:rgba(186,187,182,0.32);}.b{fill:#babcb6;}.c{fill:none;}.d{clip-path:url(#a);}.e{clip-path:url(#b);}.f{fill:#ff4431;}.g{fill:#353747;}.h{fill:#ccd7e2;}.i{clip-path:url(#c);}.j{fill:#e53013;}</style><clipPath id="a"><rect class="a" width="297.684" height="130.275"/></clipPath><clipPath id="b"><rect class="b" width="306.756" height="130.275"/></clipPath><clipPath id="c"><rect class="c" width="115.715" height="127.229"/></clipPath></defs><g transform="translate(-498 -825.495)"><g transform="translate(-1 -4)"><g transform="translate(504.285 895.844)"><g class="d"><path class="a" d="M297.684,10.09a16.508,16.508,0,0,0-7.578-7.631C285.955.479,281.376,0,276.543,0Q205.178.03,133.812.015,76.691.015,19.569,0c-7.54-.006-13.624,1.853-17.6,6.6-2.15,2.569-2.6,5.27-1.068,8.168C19.542,50.044,38.079,85.347,56.788,120.6c3.682,6.938,9.723,9.694,19.384,9.671,48.643-.115,97.285-.051,145.928-.053,9.257,0,16.076-3.358,19.363-9.586q27.466-52.045,54.9-104.1c.47-.89.883-1.8,1.322-2.694Z" transform="translate(0 0)"/></g></g><g transform="translate(499 887.844)"><g class="e"><path class="b" d="M306.756,10.09a16.754,16.754,0,0,0-7.809-7.631C294.669.479,289.951,0,284.97,0Q211.43.03,137.89.015,79.028.015,20.165,0C12.395-.006,6.126,1.854,2.034,6.6-.181,9.169-.645,11.87.933,14.769,20.138,50.044,39.239,85.347,58.518,120.6c3.794,6.938,10.02,9.694,19.975,9.671q75.188-.172,150.375-.053c9.539,0,16.566-3.358,19.953-9.586q28.3-52.045,56.572-104.1c.484-.89.909-1.8,1.363-2.694Z" transform="translate(0 0)"/></g></g></g><g transform="translate(593.708 825.496)"><rect class="f" width="115.715" height="127.227" transform="translate(0 0.002)"/><rect class="g" width="92.822" height="57.792" transform="translate(11.686 57.832)"/><rect width="58.468" height="11.566" transform="translate(28.863 79.904)"/><rect class="h" width="92.819" height="34.699" transform="translate(11.566 11.566)"/><g transform="translate(0 0)"><g class="i"><path class="j" d="M19.709,45.395A13.495,13.495,0,1,0,33.2,31.9,13.494,13.494,0,0,0,19.709,45.395" transform="translate(24.894 40.292)"/><path class="j" d="M14.1,8.793H25.869v4H18.876v3.44h5.993v3.994H18.876v6.6H14.1Z" transform="translate(17.813 11.107)"/><rect class="j" width="4.773" height="18.034" transform="translate(46.796 19.899)"/><path class="j" d="M34.265,26.827l-3.107-6.049H29.327v6.049H24.554V8.793h6.823c3.888,0,7.217,1.333,7.217,5.825a5.53,5.53,0,0,1-2.915,5.216l3.913,6.993ZM29.327,17h1.72c1.885,0,2.883-.831,2.883-2.385s-1-2.053-2.883-2.053h-1.72Z" transform="translate(31.013 11.107)"/><path class="j" d="M32.282,8.793H43.935v4h-6.88v2.827h5.882v4H37.055v3.22h7.156v3.994H32.282Z" transform="translate(40.774 11.107)"/></g></g></g></g></svg>