<svg xmlns="http://www.w3.org/2000/svg" xmlns:xlink="http://www.w3.org/1999/xlink" width="308.477" height="239.515" viewBox="0 0 308.477 239.515"><defs><style>.a{fill:#babcb6;}.b{fill:rgba(186,188,182,0.32);}.c{fill:none;}.d{clip-path:url(#a);}.e{clip-path:url(#b);}.f{clip-path:url(#c);}.g{fill:#dbae35;}.h{fill:#514848;}.i{fill:#6b5f5f;}</style><clipPath id="a"><rect class="a" width="306.756" height="130.275"/></clipPath><clipPath id="b"><rect class="b" width="308.477" height="138.119"/></clipPath><clipPath id="c"><rect class="c" width="145.688" height="133.025"/></clipPath></defs><g transform="translate(-1421 -786.605)"><g transform="translate(1230 -0.243)"><g transform="translate(191 888.243)"><g class="d"><path class="a" d="M306.756,120.186a16.754,16.754,0,0,1-7.809,7.631c-4.277,1.98-9,2.456-13.976,2.454q-73.54-.026-147.081-.01-58.861,0-117.724.014c-7.77.006-14.039-1.853-18.131-6.6-2.215-2.569-2.679-5.27-1.1-8.168C20.138,80.231,39.239,44.928,58.518,9.672,62.313,2.734,68.538-.022,78.494,0q75.188.172,150.375.053c9.539,0,16.566,3.358,19.953,9.586q28.3,52.045,56.572,104.1c.484.89.909,1.8,1.363,2.694Z" transform="translate(0 0)"/></g></g><g transform="translate(191 888.243)"><g class="e"><path class="b" d="M308.477,127.422c-1.715,3.167-3.792,6.108-7.853,8.091-4.3,2.1-9.046,2.6-14.055,2.6q-73.953-.028-147.906-.011-59.192,0-118.385.015c-7.814.007-14.118-1.964-18.233-7-2.228-2.724-2.694-5.588-1.107-8.66q28.969-56.1,57.909-112.207C62.662,2.9,68.923-.023,78.934,0,129.34.123,179.747.055,230.153.057c9.593,0,16.659,3.56,20.065,10.163Q278.679,65.4,307.107,120.588c.487.944.915,1.9,1.37,2.856Z" transform="translate(0 0)"/></g></g></g><g transform="matrix(-0.259, -0.966, 0.966, -0.259, 1529.424, 961.758)"><g class="f" transform="translate(0 0)"><path class="g" d="M67.869,0l2.582.058.043.108a80.189,80.189,0,0,1,32.4,9.558c14.873,8.249,32.367,25.232,34.806,59.562h-7.723C125.372,8.64,70.332,7.742,67.9,7.742l-1.63-.035A60.256,60.256,0,0,0,7.684,67.873,53.848,53.848,0,0,0,61.47,121.659a48.077,48.077,0,0,0,48.022-48.022A42.885,42.885,0,0,0,66.654,30.8a38.209,38.209,0,0,0-38.17,38.166,34.006,34.006,0,0,0,33.97,33.97A30.221,30.221,0,0,0,92.637,72.747,26.812,26.812,0,0,0,65.853,45.97,23.742,23.742,0,0,0,42.134,69.685,20.993,20.993,0,0,0,63.1,90.655a18.4,18.4,0,0,0,12.434-4.823,18.406,18.406,0,0,1-12.012,4.444A20.14,20.14,0,0,1,43.407,70.161a21.953,21.953,0,0,1,21.926-21.93A23.962,23.962,0,0,1,89.265,72.17,26.2,26.2,0,0,1,63.1,98.336,28.683,28.683,0,0,1,34.45,69.685a31.438,31.438,0,0,1,31.4-31.4,34.506,34.506,0,0,1,34.469,34.465,37.914,37.914,0,0,1-37.868,37.876A41.7,41.7,0,0,1,20.8,68.969,45.908,45.908,0,0,1,66.654,23.115a50.578,50.578,0,0,1,50.519,50.523,55.773,55.773,0,0,1-55.7,55.71A61.542,61.542,0,0,1,0,67.873,67.946,67.946,0,0,1,67.869,0" transform="translate(0 0)"/><path class="h" d="M46.77,18.247h5.4V25.49h2.559V37.03H52.17V62.212H46.758c-.3,5.768-.581,11.877-.778,19.422H40.22c-.2-7.545-.449-13.654-.7-19.422H34.239V37.03H31.68V25.49h2.559V18.247h4.816c-.012-.12-.027-.232-.035-.348h7.719c.008.116.023.228.031.348" transform="translate(90.959 51.391)"/><path class="i" d="M40.22,81.634c-.194-7.545-.445-13.654-.7-19.422H34.243V37.03H31.68V25.49h2.563V18.247h4.812c-.008-.12-.027-.232-.035-.348H43.2V81.634Z" transform="translate(90.959 51.391)"/></g></g></g></svg>