<svg xmlns="http://www.w3.org/2000/svg" xmlns:xlink="http://www.w3.org/1999/xlink" width="308.477" height="309.784" viewBox="0 0 308.477 309.784"><defs><style>.a{fill:#babcb6;}.b{fill:rgba(186,188,182,0.32);}.c{fill:none;}.d{clip-path:url(#a);}.e{clip-path:url(#b);}.f{clip-path:url(#c);}.g{clip-path:url(#d);}.h{opacity:0.7;mix-blend-mode:multiply;isolation:isolate;}.i{clip-path:url(#e);}.j{fill:gray;}.k{fill:#dc2e1c;}.l{fill:#c42b19;}.m{fill:#fff;}.n{fill:#393232;}</style><clipPath id="a"><rect class="a" width="306.756" height="130.275"/></clipPath><clipPath id="b"><rect class="b" width="308.477" height="138.119"/></clipPath><clipPath id="c"><rect class="c" width="164.601" height="245.158"/></clipPath><clipPath id="d"><rect class="c" width="164.603" height="245.158"/></clipPath><clipPath id="e"><rect class="c" width="161.361" height="241.917"/></clipPath></defs><g transform="translate(-806 -716.336)"><g transform="translate(615 -0.243)"><g transform="translate(191 888.243)"><g class="d"><path class="a" d="M306.756,120.186a16.754,16.754,0,0,1-7.809,7.631c-4.277,1.98-9,2.456-13.976,2.454q-73.54-.026-147.081-.01-58.861,0-117.724.014c-7.77.006-14.039-1.853-18.131-6.6-2.215-2.569-2.679-5.27-1.1-8.168C20.138,80.231,39.239,44.928,58.518,9.672,62.313,2.734,68.538-.022,78.494,0q75.188.172,150.375.053c9.539,0,16.566,3.358,19.953,9.586q28.3,52.045,56.572,104.1c.484.89.909,1.8,1.363,2.694Z" transform="translate(0 0)"/></g></g><g transform="translate(191 888.243)"><g class="e"><path class="b" d="M308.477,127.422c-1.715,3.167-3.792,6.108-7.853,8.091-4.3,2.1-9.046,2.6-14.055,2.6q-73.953-.028-147.906-.011-59.192,0-118.385.015c-7.814.007-14.118-1.964-18.233-7-2.228-2.724-2.694-5.588-1.107-8.66q28.969-56.1,57.909-112.207C62.662,2.9,68.923-.023,78.934,0,129.34.123,179.747.055,230.153.057c9.593,0,16.659,3.56,20.065,10.163Q278.679,65.4,307.107,120.588c.487.944.915,1.9,1.37,2.856Z" transform="translate(0 0)"/></g></g></g><g transform="translate(850.398 716.336)"><g class="f"><g transform="translate(0 -0.001)"><g class="g"><g class="h" transform="translate(3.24 3.241)"><g class="i"><path class="j" d="M155.434,47.8l4.439-8.269L124.754,20.694,161.863,9.489,159.141.5,112.435,14.6h-7.693V25.088H75.073L52.845,58.917c-6.111-2.288-13.72-.039-18.256,5.859C20.953,82.5,14.135,91.359.5,109.078c12.832,8.9,19.248,13.344,32.079,22.242,11.808-18.988,17.712-28.483,29.526-47.471,4.083-6.565,3.312-14.854-1.452-19.727L80.135,34.478h24.607v8.606H100.7V54.4A43.811,43.811,0,0,0,68.21,96.693V220.5a21.92,21.92,0,0,0,21.918,21.918h44.613A21.916,21.916,0,0,0,156.659,220.5V96.693A43.811,43.811,0,0,0,124.171,54.4V43.085h-4.044V28.872Z" transform="translate(-0.5 -0.5)"/></g></g><path class="k" d="M66.409,9.189A43.818,43.818,0,0,1,98.9,51.482V175.289a21.918,21.918,0,0,1-21.924,21.918H32.366a21.916,21.916,0,0,1-21.918-21.918V51.482A43.813,43.813,0,0,1,42.929,9.189c11.153-2.32,23.48,0,23.48,0" transform="translate(57.262 44.712)"/><path class="l" d="M10.448,175.287V51.479A43.811,43.811,0,0,1,42.936,9.186,55.718,55.718,0,0,1,54.672,8.163V197.2H32.366a21.915,21.915,0,0,1-21.918-21.911" transform="translate(57.262 44.721)"/><path class="k" d="M34.088,15.616C38.625,9.725,46.233,7.47,52.345,9.757l7.809,5.2c4.763,4.867,5.535,13.162,1.452,19.727C49.791,53.677,43.887,63.171,32.079,82.16,19.248,73.262,12.832,68.81,0,59.918,13.635,42.2,20.453,33.341,34.088,15.616" transform="translate(0 48.66)"/><rect class="m" width="39.921" height="58.968" transform="translate(91.974 112.758)"/><path class="m" d="M10.811,52.875v7.958C10.811,36.628,29.391,17,52.313,17h.739c22.922,0,41.5,19.624,41.5,43.829V52.875c0-24.205-18.58-43.829-41.5-43.829h-.739c-22.922,0-41.5,19.624-41.5,43.829" transform="translate(59.252 49.579)"/><path class="m" d="M2.74,61.723l-.045-.039,34.082-44.3c5.074-6.591,13.979-8.606,20.343-4.828-.467-.324-.933-.648-1.555-1.076-6.39-4.439-15.852-2.463-21.134,4.394C20.8,33.59,13.977,42.449.342,60.174c.817.57,1.555,1.076,2.307,1.6l.091-.052" transform="translate(1.874 49.908)"/><path class="n" d="M30.306,24.588H59.974V14.1h7.693L114.373,0,117.1,8.989,79.987,20.194l35.119,18.833L110.666,47.3l-35.3-18.93V42.585H79.41V53.9s-12.326-2.32-23.48,0V42.585h4.044V33.978h-24.6L15.886,63.621l-7.809-5.2Z" transform="translate(44.268 0.001)"/></g></g></g></g></g></svg>