<svg xmlns="http://www.w3.org/2000/svg" xmlns:xlink="http://www.w3.org/1999/xlink" width="308.477" height="270.514" viewBox="0 0 308.477 270.514"><defs><style>.a{fill:#babcb6;}.b{fill:rgba(186,188,182,0.32);}.c{fill:none;}.d{clip-path:url(#a);}.e{clip-path:url(#b);}.f{clip-path:url(#c);}.g{clip-path:url(#d);}.h{opacity:0.7;mix-blend-mode:multiply;isolation:isolate;}.i{clip-path:url(#e);}.j{fill:gray;}.k{fill:#dc1400;}.l{fill:#c41400;}.m{fill:#fff;}.n{fill:#ee1400;}.o{fill:#454545;}.p{fill:#515151;}.q{fill:#ffe832;}</style><clipPath id="a"><rect class="a" width="306.756" height="130.275"/></clipPath><clipPath id="b"><rect class="b" width="308.477" height="138.119"/></clipPath><clipPath id="c"><rect class="c" width="259.752" height="205.507"/></clipPath><clipPath id="d"><rect class="c" width="259.75" height="205.505"/></clipPath><clipPath id="e"><rect class="c" width="152.942" height="145.93"/></clipPath></defs><g transform="translate(0 132.394)"><g class="d"><path class="a" d="M306.756,120.186a16.754,16.754,0,0,1-7.809,7.631c-4.277,1.98-9,2.456-13.976,2.454q-73.54-.026-147.081-.01-58.861,0-117.724.014c-7.77.006-14.039-1.853-18.131-6.6-2.215-2.569-2.679-5.27-1.1-8.168C20.138,80.231,39.239,44.928,58.518,9.672,62.313,2.734,68.538-.022,78.494,0q75.188.172,150.375.053c9.539,0,16.566,3.358,19.953,9.586q28.3,52.045,56.572,104.1c.484.89.909,1.8,1.363,2.694Z" transform="translate(0 0)"/></g></g><g transform="translate(0 132.394)"><g class="e"><path class="b" d="M308.477,127.422c-1.715,3.167-3.792,6.108-7.853,8.091-4.3,2.1-9.046,2.6-14.055,2.6q-73.953-.028-147.906-.011-59.192,0-118.385.015c-7.814.007-14.118-1.964-18.233-7-2.228-2.724-2.694-5.588-1.107-8.66q28.969-56.1,57.909-112.207C62.662,2.9,68.923-.023,78.934,0,129.34.123,179.747.055,230.153.057c9.593,0,16.659,3.56,20.065,10.163Q278.679,65.4,307.107,120.588c.487.944.915,1.9,1.37,2.856Z" transform="translate(0 0)"/></g></g><g transform="translate(23.329)"><g class="f"><g transform="translate(0 0.002)"><g class="g"><g class="h" transform="translate(71.461 59.575)"><g class="i"><path class="j" d="M76.2,137.509A63.432,63.432,0,1,0,12.768,74.074,63.437,63.437,0,0,0,76.2,137.509" transform="translate(-12.768 -10.643)"/><path class="j" d="M150.686,30.15a10.119,10.119,0,1,0-12.156,9.918c.308,14.893-.526,40.941-13.069,53.965-4.936,5.132-11.373,7.724-19.147,7.724V94.749H16.037v18.677h90.277v-7c9.095,0,16.662-3.073,22.511-9.156C142.643,82.928,143.516,55.4,143.2,39.889a10.1,10.1,0,0,0,7.489-9.739" transform="translate(2.259 32.503)"/></g></g><path class="k" d="M138.8,73.238A63.432,63.432,0,1,1,75.362,9.809,63.432,63.432,0,0,1,138.8,73.238" transform="translate(54.854 45.089)"/><path class="l" d="M86.7,73.238A63.427,63.427,0,0,0,23.266,9.809V136.673A63.432,63.432,0,0,0,86.7,73.238" transform="translate(106.95 45.089)"/><path class="m" d="M23.266,12.053s1.338-.2,3.655-.425c.582-.056,1.226-.118,1.925-.19.716.022,1.483.05,2.317.062a31.415,31.415,0,0,1,5.58.487q1.511.26,3.173.526c1.063.308,2.166.616,3.3.946a48.366,48.366,0,0,1,6.968,2.681,52.34,52.34,0,0,1,6.867,4.147,62.749,62.749,0,0,1,6.392,5.295,63.359,63.359,0,0,1,5.3,6.4,50.121,50.121,0,0,1,4.147,6.867,47.708,47.708,0,0,1,2.686,6.962c.325,1.136.644,2.25.951,3.308q.269,1.654.52,3.179a30.037,30.037,0,0,1,.481,5.541c.022.823.039,1.6.056,2.306-.062.716-.123,1.366-.173,1.964-.246,2.345-.442,3.649-.442,3.649s-.33-1.315-.8-3.571c-.112-.565-.235-1.187-.375-1.858-.19-.666-.4-1.377-.627-2.144a47.07,47.07,0,0,0-1.59-5.026c-.325-.9-.672-1.83-1.03-2.8-.425-.929-.862-1.9-1.315-2.888-.784-2.032-2.138-3.918-3.162-6.011-1.315-1.948-2.591-4-4.147-5.893a58.017,58.017,0,0,0-4.875-5.574,57.249,57.249,0,0,0-5.586-4.88c-1.886-1.573-3.946-2.838-5.893-4.164-2.1-1.019-3.979-2.373-6.005-3.162q-1.494-.68-2.894-1.31c-.963-.364-1.9-.705-2.8-1.035a48.994,48.994,0,0,0-4.981-1.584c-.767-.224-1.478-.431-2.138-.627-.688-.134-1.321-.257-1.892-.375-2.284-.476-3.593-.8-3.593-.8" transform="translate(106.95 52.572)"/><path class="n" d="M46.662,31.687a12.845,12.845,0,1,1-12.85-12.839,12.847,12.847,0,0,1,12.85,12.839" transform="translate(96.405 86.64)"/><rect class="o" width="90.283" height="18.677" transform="translate(85.078 182.155)"/><path class="p" d="M31.332,97.283V92.61c7.768,0,14.2-2.591,19.141-7.724,14.585-15.139,13.343-47.92,12.873-60.261-.062-1.562-.1-2.8-.1-3.621h4.668c0,.778.05,1.948.106,3.442C68.5,37.33,69.8,71.549,53.837,88.127c-5.849,6.084-13.416,9.156-22.5,9.156" transform="translate(144.028 96.55)"/><path class="k" d="M55.877,29.315A10.116,10.116,0,1,1,45.757,19.2,10.124,10.124,0,0,1,55.877,29.315" transform="translate(163.85 88.239)"/><path class="q" d="M102.476,80.228h-.106a1.47,1.47,0,0,1-1.36-1.567A71.013,71.013,0,0,0,35.219,2.936a1.461,1.461,0,0,1-1.36-1.562A1.448,1.448,0,0,1,35.426.009a73.949,73.949,0,0,1,68.511,78.854,1.466,1.466,0,0,1-1.461,1.366" transform="translate(155.628 -0.005)"/><path class="q" d="M93.04,72.34h-.106a1.467,1.467,0,0,1-1.36-1.567A61.375,61.375,0,0,0,34.637,5.239a1.467,1.467,0,0,1-1.36-1.567,1.437,1.437,0,0,1,1.567-1.36A64.325,64.325,0,0,1,94.5,70.974,1.466,1.466,0,0,1,93.04,72.34" transform="translate(152.953 10.576)"/><path class="q" d="M83.6,64.45H83.5a1.47,1.47,0,0,1-1.36-1.567A51.9,51.9,0,0,0,34.054,7.541a1.463,1.463,0,0,1-1.36-1.567,1.428,1.428,0,0,1,1.567-1.36,54.838,54.838,0,0,1,50.8,58.47A1.466,1.466,0,0,1,83.6,64.45" transform="translate(150.273 21.157)"/><path class="q" d="M74.166,56.562l-.106-.006A1.465,1.465,0,0,1,72.7,55,42.287,42.287,0,0,0,33.471,9.84a1.462,1.462,0,0,1-1.36-1.562,1.415,1.415,0,0,1,1.567-1.36A45.227,45.227,0,0,1,75.626,55.2a1.471,1.471,0,0,1-1.461,1.366" transform="translate(147.593 31.738)"/><path class="q" d="M1.645,80.228h.106a1.47,1.47,0,0,0,1.36-1.567A71.013,71.013,0,0,1,68.9,2.936a1.458,1.458,0,0,0,1.36-1.562A1.448,1.448,0,0,0,68.695.009,73.949,73.949,0,0,0,.184,78.863a1.466,1.466,0,0,0,1.461,1.366" transform="translate(0.001 -0.005)"/><path class="q" d="M3.792,72.34H3.9a1.47,1.47,0,0,0,1.36-1.567A61.375,61.375,0,0,1,62.195,5.239a1.47,1.47,0,0,0,1.36-1.567,1.437,1.437,0,0,0-1.567-1.36A64.315,64.315,0,0,0,2.331,70.974,1.466,1.466,0,0,0,3.792,72.34" transform="translate(9.971 10.576)"/><path class="q" d="M5.935,64.45h.106A1.47,1.47,0,0,0,7.4,62.883,51.9,51.9,0,0,1,55.483,7.541a1.467,1.467,0,0,0,1.36-1.567,1.431,1.431,0,0,0-1.567-1.36,54.834,54.834,0,0,0-50.8,58.47A1.459,1.459,0,0,0,5.935,64.45" transform="translate(19.94 21.157)"/><path class="q" d="M8.082,56.562l.106-.006A1.465,1.465,0,0,0,9.548,55,42.287,42.287,0,0,1,48.777,9.84a1.458,1.458,0,0,0,1.36-1.562,1.415,1.415,0,0,0-1.567-1.36A45.227,45.227,0,0,0,6.621,55.2a1.471,1.471,0,0,0,1.461,1.366" transform="translate(29.909 31.738)"/></g></g></g></g></svg>