<svg xmlns="http://www.w3.org/2000/svg" xmlns:xlink="http://www.w3.org/1999/xlink" width="211.456" height="211.455" viewBox="0 0 211.456 211.455"><defs><style>.a,.b{fill-rule:evenodd;}.a{fill:url(#a);}.c{fill:url(#b);}.d{fill:url(#e);}</style><linearGradient id="a" y1="0.5" x2="1" y2="0.5" gradientUnits="objectBoundingBox"><stop offset="0" stop-color="#f5f8da"/><stop offset="0.224" stop-color="#d4c5a7"/><stop offset="0.291" stop-color="#ffee9c"/><stop offset="0.352" stop-color="#e3d4a6"/><stop offset="0.382" stop-color="#d4c7ac"/><stop offset="0.412" stop-color="#e3d7b7"/><stop offset="0.464" stop-color="#f7edc6"/><stop offset="0.497" stop-color="#fff5cc"/><stop offset="0.648" stop-color="#fffffe"/><stop offset="0.701" stop-color="#fffcee"/><stop offset="0.794" stop-color="#fff5ca"/><stop offset="0.805" stop-color="#fef6cd"/><stop offset="0.851" stop-color="#fbfbd9"/><stop offset="0.897" stop-color="#fafdde"/><stop offset="1" stop-color="#fdfdfd"/></linearGradient><linearGradient id="b" y1="0.5" x2="1" y2="0.5" gradientUnits="objectBoundingBox"><stop offset="0" stop-color="#f8ee66"/><stop offset="0.224" stop-color="#d48720"/><stop offset="0.291" stop-color="#ffca38"/><stop offset="0.331" stop-color="#edae2c"/><stop offset="0.382" stop-color="#d4861b"/><stop offset="0.431" stop-color="#ebaa31"/><stop offset="0.471" stop-color="#f9bf3f"/><stop offset="0.497" stop-color="#ffc845"/><stop offset="0.648" stop-color="#fffac4"/><stop offset="0.669" stop-color="#fff4b4"/><stop offset="0.709" stop-color="#ffe68c"/><stop offset="0.764" stop-color="#ffd04c"/><stop offset="0.794" stop-color="#ffc327"/><stop offset="0.82" stop-color="#fed742"/><stop offset="0.845" stop-color="#fde656"/><stop offset="0.871" stop-color="#fdef62"/><stop offset="0.897" stop-color="#fdf367"/><stop offset="1" stop-color="#fdf9c4"/></linearGradient><linearGradient id="e" x1="0" y1="0.5" x2="1" y2="0.5" xlink:href="#b"/></defs><g transform="translate(-523 -814)"><path class="a" d="M305.852,1227.444a105.728,105.728,0,1,0-105.728-105.726,105.727,105.727,0,0,0,105.728,105.726Z" transform="translate(322.876 -201.989)"/><path class="b" d="M316,1211.423a79.558,79.558,0,1,0-79.558-79.557A79.559,79.559,0,0,0,316,1211.423Z" transform="translate(312.728 -212.137)"/><path class="b" d="M213.435,1155.325l1.609,4.985,5.24-.01-4.245,3.072,1.629,4.979-4.233-3.088-4.233,3.088,1.629-4.979-4.245-3.072,5.24.01,1.61-4.985Z" transform="translate(321.07 -240.924)"/><path class="b" d="M475.441,1160.325l1.609,4.985,5.24-.01-4.245,3.072,1.629,4.979-4.232-3.088-4.234,3.088,1.629-4.979-4.245-3.072,5.24.01,1.61-4.985Z" transform="translate(247.859 -242.321)"/><g transform="translate(554.286 848.573)"><path class="c" d="M325.79,1197.4a10.893,10.893,0,0,0,6.04,6.035,13.05,13.05,0,0,0,9.667.545q-5.672-7.594-15.707-6.579Zm-15.412,0c-7.86-.628-13.119,1.708-15.791,7.072a15.98,15.98,0,0,0,9.8-1.119,12.475,12.475,0,0,0,5.993-5.953Zm27.36-2.469q1.6,3.339,7.269,4.614c3.864.833,7,.4,9.4-1.365a13.821,13.821,0,0,0-7.245-3.944,14.6,14.6,0,0,0-9.42.7Zm-39.392,0a15.659,15.659,0,0,0-9.751-.7,11.737,11.737,0,0,0-7.233,4.436,14.381,14.381,0,0,0,9.716.792q5.264-1.269,7.268-4.532Zm50.645-4.981c1.49,2.114,4.326,3.221,8.545,3.33,4.362.054,7.162-1.052,8.439-3.33a14.885,14.885,0,0,0-8.439-2.225,15.355,15.355,0,0,0-8.545,2.225Zm-79.282.859a13.457,13.457,0,0,0,8.463,2.307,14.5,14.5,0,0,0,8.521-2.307c-1.49-2.21-4.3-3.275-8.439-3.166-4.055.056-6.89,1.118-8.546,3.166Zm44.841,4.122q-1.843-10.072-12.445-11.587c1.689,6.823,5.827,10.7,12.445,11.587Zm18.651-11.971c-6.808,2.116-10.814,6.089-12.044,11.971a15.053,15.053,0,0,0,8.688-3.876,10.238,10.238,0,0,0,3.356-8.095Zm-.414,10.32q8.955-2.724,10.378-13.649-9.308,2.19-10.378,13.649Zm-29.511-.41c-1.359-7.493-4.821-11.916-10.342-13.239a14.665,14.665,0,0,0,3.179,9.13,10.925,10.925,0,0,0,7.162,4.109Zm56.081-9.13a16.213,16.213,0,0,0,9.644.791q5.265-1.024,6.937-4.533a15.748,15.748,0,0,0-9.55-.7c-3.4.723-5.743,2.224-7.031,4.437Zm-82.628-.4a13.576,13.576,0,0,0-7.646-4.124c-3.947-.9-6.914-.354-8.959,1.679q2.411,2.846,7.6,3.8c3.617.656,6.606.19,9-1.35Zm67.334,5.785q3.421-1,5.873-5.542a10.788,10.788,0,0,0,.745-9.759q-8.545,6.655-6.618,15.3Zm-51.945.409q.975-10.972-7.493-15.71a15.316,15.316,0,0,0,1.359,9.759,13.47,13.47,0,0,0,6.134,5.951Zm75.925-14.44q11.594,1.1,15.791-6.579a15.118,15.118,0,0,0-9.8.778,11.954,11.954,0,0,0-5.992,5.8Zm-100-.409c-4.113-5.651-9.361-7.712-15.814-6.17.709,2.224,2.588,3.986,5.661,5.309a14.92,14.92,0,0,0,10.153.861Zm86.775,8.654a16.387,16.387,0,0,0,3.972-6.895,13.821,13.821,0,0,0-.215-9.2c-2.4.777-4.089,3.084-5.046,6.905-1,3.849-.566,6.907,1.289,9.187Zm-77.213-16.5a13.69,13.69,0,0,0-.5,9.663c.934,3.372,2.588,5.638,5.048,6.84a16.3,16.3,0,0,0,.07-9.679,12.4,12.4,0,0,0-4.62-6.825Zm85.889-7.861c-1.679,1.706-2.613,4.368-2.778,8.026-.213,3.6.437,6.414,2,8.476,2.115-1.3,3.321-3.985,3.593-8.026.272-4-.686-6.826-2.812-8.476Zm-90.026,16.5a16.922,16.922,0,0,0,1.821-8.968c-.213-3.6-1.383-6.1-3.511-7.533-1.583,2.115-2.294,5.119-2.069,8.967.272,4.04,1.525,6.538,3.758,7.534Zm101.679-10.7q11.31-.653,14.135-9.54c-7.622.327-12.3,3.494-14.135,9.54Zm-128.721-9.54c2.234,6.1,7.08,9.267,14.6,9.54q-3.438-9.4-14.6-9.54Zm124.182,11.192a17.365,17.365,0,0,0,1.029-9.35c-.568-3.658-1.9-6.033-3.972-7.153a12.666,12.666,0,0,0-1.359,9.215c.626,3.712,2.068,6.128,4.3,7.288Zm-102.967-16.5a12.472,12.472,0,0,0-3.439,7.536,13.3,13.3,0,0,0,1.371,8.967c2.175-1.46,3.557-4.068,4.136-7.78.591-3.8-.106-6.715-2.068-8.723ZM379.7,1153.18c6.808-1,10.945-4.873,12.445-11.588-6.477.75-10.649,4.6-12.445,11.588Zm-123.308-.395c-2.069-6.292-6.228-10.169-12.433-11.574a11.58,11.58,0,0,0,3.806,8.242,10.761,10.761,0,0,0,8.627,3.331Zm119.171,3.358a16.254,16.254,0,0,0-.568-9.95,10.953,10.953,0,0,0-5.259-6.169c-1.442,6.933.484,12.3,5.827,16.119Zm-109.987-16.119c-5.07,4.162-6.867,9.527-5.449,16.119a11.821,11.821,0,0,0,5.685-6.689,11.131,11.131,0,0,0-.236-9.43Zm104.575-9.924a13.947,13.947,0,0,0,2.281,9.759,12.028,12.028,0,0,0,6.476,4.682c-.048-7.041-2.99-11.861-8.757-14.44Zm-104.989,0q-9.395,5.937-7.482,14.823a18.972,18.972,0,0,0,6.288-5.937,9.5,9.5,0,0,0,1.194-8.885Zm117.019,11.111a15.089,15.089,0,0,0,7.316-5.011,10.889,10.889,0,0,0,2.27-9.05c-6.135,3.167-9.315,7.863-9.586,14.061Zm-128.672,0q-.32-10.485-9.964-14.061.5,10.729,9.964,14.061Zm115.033-21.048c.485,6.933,4.184,11.192,11.157,12.79-1.064-6.838-4.787-11.084-11.157-12.79Zm-111.677,13.186q9.662-4.137,10.778-12.776c-.106-.328-.414-.464-.875-.409a15.584,15.584,0,0,0-7.516,5.091c-2.175,2.731-2.967,5.446-2.387,8.095Zm125.316-4.519a11.873,11.873,0,0,0,6.146-5.555,13.57,13.57,0,0,0,1.335-9.295c-2.4.573-4.3,2.225-5.743,4.914a18.729,18.729,0,0,0-1.738,9.936Zm-128.672,0q.9-11.506-7.482-15.258c-.6,7.478,1.9,12.544,7.482,15.258Zm111.274-17.771a15.767,15.767,0,0,0,4.87,7.453,11.212,11.212,0,0,0,8.771,2.457q-4.7-9.786-13.64-9.91Zm-93.794,0q-10.212.452-13.309,10.293,10.371-.534,13.309-10.293Zm88.783-8.666q3.015,8.17,14.975,8.258-3.564-8.825-14.975-8.258ZM261.4,1110.65a18.143,18.143,0,0,0,9.1-1.979,11.909,11.909,0,0,0,5.826-6.279,17.05,17.05,0,0,0-10.128,1.979,9.855,9.855,0,0,0-4.8,6.278Zm122.433-10.318a14.033,14.033,0,0,0-4.137,7.235c-.9,3.576-.6,6.687.874,9.266,2.069-1.419,3.593-3.848,4.539-7.289,1.016-3.821.6-6.879-1.276-9.212Zm-128.224,16.5a15.163,15.163,0,0,0,.543-9.513q-1.277-4.915-4.715-6.988a13.284,13.284,0,0,0-.544,9.459,12.217,12.217,0,0,0,4.716,7.042Zm11.157-16.5a20.3,20.3,0,0,0,10.047-.328,9.456,9.456,0,0,0,6.122-5.064,19.346,19.346,0,0,0-9.964.3,9.893,9.893,0,0,0-6.2,5.092Zm85.983-4.531q5.957,7,16.571,4.531c-1.218-2.443-3.593-4.2-7.1-5.309-3.7-1.175-6.855-.9-9.468.778Zm23.6-7.44c-1.631,1.884-2.565,4.6-2.73,8.149a14.206,14.206,0,0,0,1.938,8.75c2.175-1.435,3.4-4.177,3.652-8.177.213-4.121-.746-7.043-2.86-8.722Zm-116.228,16.9a14.541,14.541,0,0,0,2.175-8.915c-.166-3.684-1.277-6.36-3.345-7.984-1.608,2.1-2.293,5.092-2.092,8.969s1.3,6.55,3.261,7.93Zm84.731-15.657c1.489,1.871,4.243,2.976,8.3,3.359,4.2.3,7.079-.548,8.687-2.554a16.084,16.084,0,0,0-8.392-3.03q-5.5-.533-8.592,2.225Zm-54.025-.464c-2.234-1.542-5.081-2.089-8.6-1.679a16.744,16.744,0,0,0-7.977,2.948q2.253,3.092,8.769,2.554c4.28-.383,6.867-1.652,7.812-3.823Zm44.841-3.658c2.459,1.433,5.555,1.925,9.337,1.515,3.759-.422,6.348-1.623,7.741-3.575-2.4-1.707-5.471-2.293-9.266-1.816-3.722.464-6.311,1.762-7.812,3.877Zm-35.658,0c-1.311-2.279-3.982-3.6-7.977-3.958-3.924-.369-6.95.382-9.1,2.307a15.483,15.483,0,0,0,7.977,3.166c3.735.465,6.76-.026,9.1-1.515Zm69.721,9.459a16.4,16.4,0,0,0,1.039-9.54c-.6-3.6-1.879-6.033-3.924-7.371-1.583,2.552-2.044,5.692-1.335,9.432.626,3.712,2.044,6.21,4.22,7.479Zm-100.9-16.911c-2.009,1.57-3.3,4.2-3.841,7.862-.626,3.794-.048,6.824,1.773,9.049A14.671,14.671,0,0,0,270.5,1087c.589-3.6.024-6.577-1.667-8.967ZM310,1082.559c-4.16-4.94-9.561-6.566-16.2-4.94.685,2.17,2.778,3.9,6.3,5.186q5.585,1.946,9.9-.246Zm16.169.383a15.194,15.194,0,0,0,9.669-.138,10.856,10.856,0,0,0,6.535-5.186,17.433,17.433,0,0,0-9.715.246,10.208,10.208,0,0,0-6.489,5.078Zm-6.2,114.871q28.631-3.994,44.427-20.65,19.449-20.558,17.374-48.334-1.258-17.872-14.1-33.427-12.782-15.621-26.959-19.832,19.536,10.933,29.027,23.081,12.569,16.3,11.239,38.409a60.582,60.582,0,0,1-15.79,37.795,65.582,65.582,0,0,1-34.051,20.078,53.074,53.074,0,0,1-24.891.409,68.318,68.318,0,0,1-34.546-19.369,58.535,58.535,0,0,1-16.5-36.442q-1.914-22.441,10.212-39.446,9.715-13.655,29.6-24.924-41.663,20.229-41.083,59.852.408,24.773,19.135,43.417,15.405,15.335,43.151,19.751c-8.546,4.259-12.989,10.592-13.308,19.055a7.8,7.8,0,0,0,2.4-4.285,32.617,32.617,0,0,1,1.359-4.847q3.262-6.265,11.618-9.432a17.163,17.163,0,0,1,9.183,7.37,92.846,92.846,0,0,1,5.329,11.193q.657-11.178-12.823-19.423Zm41.083-111.923a16.951,16.951,0,0,0-.486-9.787,9.633,9.633,0,0,0-5.342-5.923,15.284,15.284,0,0,0,.625,9.581,12.338,12.338,0,0,0,5.2,6.129Zm-80.972-16.12q-7.589,6.572-5.414,16.12a11.5,11.5,0,0,0,5.661-6.58c1.42-3.548,1.36-6.729-.247-9.54Zm60.631,4.122a15.783,15.783,0,0,0-6.642-5.241,11.932,11.932,0,0,0-9.549-.15,16.652,16.652,0,0,0,6.618,5.173,12.408,12.408,0,0,0,9.573.218Zm-29.536-6.182q-11.559-1.106-15.706,6.578a16.4,16.4,0,0,0,9.9-.778,10.078,10.078,0,0,0,5.8-5.8Zm39.889,11.11c.213-7.207-2.671-12.136-8.687-14.85-.437,6.661,2.482,11.629,8.687,14.85Zm-58.126-14.85c-5.283,2.865-8.037,7.67-8.309,14.44,2.612-.464,4.9-2.169,6.867-5.064,2.116-3.219,2.611-6.347,1.442-9.376Z" transform="translate(-243.542 -1063.97)"/></g><path class="c" d="M301.613,1164.6a150.318,150.318,0,0,0,10.217-11.823q3.646-5.037,3.645-8.922a7.357,7.357,0,0,0-1.4-4.3,4.949,4.949,0,0,0-4.353-2,5.891,5.891,0,0,0-4.365,1.8,9.051,9.051,0,0,0-1.7,2.638h-1.342a16.135,16.135,0,0,1,4.509-7.566,9.71,9.71,0,0,1,6.476-2.459,9.33,9.33,0,0,1,6.188,2.363q2.782,2.362,2.782,6.942a10.634,10.634,0,0,1-1.307,4.916,21.907,21.907,0,0,1-4.4,5.469l-7.485,7.147v.408h6.981q3.646,0,4.762-.6t2.243-3.214h1.175l-2.206,10.337h-20.41Z" transform="translate(294.517 -234.396)"/><path class="c" d="M342.039,1138.968q3.947-4.862,9.05-4.863,5.892,0,9.93,5.986,4.1,6.141,4.1,15.438,0,10.973-4.646,17.08-3.918,5.135-9.354,5.136a9.868,9.868,0,0,1-6.529-2.25,19.343,19.343,0,0,1-4.616-5.8,22.13,22.13,0,0,1-2.308-6.9,58.13,58.13,0,0,1-.607-6.564Q337.058,1145.075,342.039,1138.968Zm5.922,34.385q1.063,2.66,3.219,2.66,2.7,0,3.645-4.928a46.071,46.071,0,0,0,.516-8v-14.263q0-7.575-1.078-10.234t-3.143-2.662q-2.1,0-3.189,2.693t-1.093,10.2v14.263Q346.9,1170.691,347.96,1173.354Z" transform="translate(284.613 -234.994)"/><g transform="translate(649.223 895.541)"><path class="d" d="M379.169,1133.492v.563h-1.594l-.015,4.5a3.039,3.039,0,0,0,.1.9.723.723,0,0,0,.735.539.881.881,0,0,0,.488-.132,2.555,2.555,0,0,0,.473-.422l.2.172-.172.234a2.491,2.491,0,0,1-.859.773,1.951,1.951,0,0,1-.875.227,1.232,1.232,0,0,1-1.25-.82,3.4,3.4,0,0,1-.179-1.234v-4.734h-.852a.242.242,0,0,1-.058-.047.1.1,0,0,1-.019-.063.189.189,0,0,1,.035-.121,2.479,2.479,0,0,1,.223-.2,6.649,6.649,0,0,0,.777-.723q.239-.278,1.121-1.465a.252.252,0,0,1,.121.016q.019.015.019.117v1.922Z" transform="translate(-375.294 -1129.789)"/><path class="c" d="M381.386,1139.837a1.361,1.361,0,0,0,.84-.316,1.894,1.894,0,0,0,.2-1.089v-7.5a1.4,1.4,0,0,0-.113-.645c-.076-.137-.259-.206-.551-.206a1.182,1.182,0,0,0-.168.011l-.184.027v-.282l.847-.246q.5-.144.7-.207l.75-.235.016.055v4.8a5.1,5.1,0,0,1,.875-.828,2.584,2.584,0,0,1,1.484-.469,1.714,1.714,0,0,1,1.726,1.063,3.676,3.676,0,0,1,.25,1.476v3.187a1.988,1.988,0,0,0,.191,1.078,1.161,1.161,0,0,0,.785.328v.219h-3.382v-.219a1.459,1.459,0,0,0,.875-.32,1.9,1.9,0,0,0,.2-1.086v-3.164a2.57,2.57,0,0,0-.254-1.226.988.988,0,0,0-.957-.468,1.914,1.914,0,0,0-1.18.438q-.571.437-.571.57v3.851a1.839,1.839,0,0,0,.2,1.094,1.517,1.517,0,0,0,.867.312v.219h-3.445Z" transform="translate(-376.996 -1129.15)"/></g><g transform="translate(535.232 822.077)"><path d="M227.756,1118.239a2.645,2.645,0,0,0,.179-1.324q-.115-.369-1.048-.766l-7.371-3.142a1.877,1.877,0,0,0-1.267-.224,2.139,2.139,0,0,0-.842,1.046l-.308-.131,3.752-8.8,2.394.954-.179.421a2.549,2.549,0,0,0-1.686.027,3.826,3.826,0,0,0-1.123,1.74l-.961,2.256q-.156.365-.074.5a.871.871,0,0,0,.4.273l3.7,1.577,1.09-2.557a2.127,2.127,0,0,0,.262-1.486,2.962,2.962,0,0,0-1.072-1.011l.166-.388,3.828,1.63-.166.389a2.989,2.989,0,0,0-1.478-.066q-.436.159-.883,1.211l-1.09,2.557,4.1,1.748c.329.14.567.119.716-.063a11.377,11.377,0,0,0,.885-1.83,6.838,6.838,0,0,0,.692-2.645,3.666,3.666,0,0,0-1.169-2.2l.2-.461,2.479,1.946-3.818,8.958Z" transform="translate(-217.099 -1048.909)"/><path d="M242.734,1088.716a2.073,2.073,0,0,0,.388-1.1,14.688,14.688,0,0,0-.385-2.219l-.95-4.321-3.49-.265a15.411,15.411,0,0,0-2.969-.054,2.173,2.173,0,0,0-1.259.778l-.261-.209,3.385-4.233.261.209a4.545,4.545,0,0,0-.555.863.476.476,0,0,0,.166.591,1.325,1.325,0,0,0,.568.231,3.33,3.33,0,0,0,.468.061l3.263.232-.657-3.116a4.733,4.733,0,0,0-.3-1.009.8.8,0,0,0-.215-.294.515.515,0,0,0-.652-.03,3.271,3.271,0,0,0-.606.616l-.261-.208,2.665-3.333.261.209a2.541,2.541,0,0,0-.519,1.015,6.1,6.1,0,0,0,.188,2.133l.924,4.073,5.991.422a3.5,3.5,0,0,0,1.36-.079,3.02,3.02,0,0,0,.917-.632l.262.208-3.308,4.136-.261-.208a3.608,3.608,0,0,0,.561-.915.436.436,0,0,0-.159-.512,2.232,2.232,0,0,0-.984-.274q-.763-.1-3.973-.342l.753,3.308q.169.727.266,1.04a1.371,1.371,0,0,0,.319.623.564.564,0,0,0,.707-.016,3.806,3.806,0,0,0,.684-.63l.261.21-2.6,3.245Z" transform="translate(-221.768 -1039.692)"/><path d="M266.969,1064.752c.516-.457.781-.818.8-1.087a2.544,2.544,0,0,0-.635-1.3l-4.609-6.3q-.556-.759-.963-.832a2.06,2.06,0,0,0-1.235.436l-.2-.27,3.833-2.807a5.872,5.872,0,0,1,3.349-1.352,2.768,2.768,0,0,1,2.362,1.171,2.89,2.89,0,0,1,.489,2.946,6.334,6.334,0,0,1-2.229,2.657q-.235.173-.608.429c-.249.171-.432.3-.551.387l1.933,2.64q.6.818,1.007.846a2.722,2.722,0,0,0,1.327-.548l.2.269-4.067,2.977Zm-1.347-12.129a4.858,4.858,0,0,0-1.758.874q-.447.328-.486.491a.659.659,0,0,0,.185.469l2.776,3.79c.277-.167.458-.277.542-.332s.164-.108.24-.164a4.459,4.459,0,0,0,1.367-1.438,2.428,2.428,0,0,0-.375-2.7A2.262,2.262,0,0,0,265.622,1052.624Z" transform="translate(-229.122 -1033.918)"/><path d="M293.354,1048.394a2.63,2.63,0,0,0,1.067-.8q.183-.339-.192-1.283l-2.955-7.449a1.884,1.884,0,0,0-.732-1.059,2.149,2.149,0,0,0-1.337.138l-.123-.311,8.9-3.529,1.008,2.373-.425.169a2.554,2.554,0,0,0-1.206-1.18,3.817,3.817,0,0,0-2.026.427l-2.279.9c-.246.1-.382.2-.408.3a.866.866,0,0,0,.09.48l1.483,3.737,2.584-1.026q1.07-.426,1.239-.86a2.952,2.952,0,0,0-.036-1.474l.392-.155,1.535,3.867-.393.156a3,3,0,0,0-.993-1.1,2.116,2.116,0,0,0-1.482.224l-2.584,1.025,1.645,4.144q.2.5.548.464a11.4,11.4,0,0,0,1.924-.659,6.859,6.859,0,0,0,2.366-1.369,3.672,3.672,0,0,0,.741-2.381l.466-.185.362,3.131-9.051,3.591Z" transform="translate(-237.213 -1029.126)"/><path d="M324.6,1039.63a2.033,2.033,0,0,0,1.24-.543,2.53,2.53,0,0,0,.1-1.446l-.862-7.754a1.878,1.878,0,0,0-.422-1.205,2.1,2.1,0,0,0-1.3-.233l-.037-.332,4.957-.55a7.339,7.339,0,0,1,2.622.106,2.743,2.743,0,0,1,2.263,2.515,2.522,2.522,0,0,1-.642,2.148,4.814,4.814,0,0,1-2.26,1.206l4.194,4.134a2.46,2.46,0,0,0,.749.531,2.248,2.248,0,0,0,.9.146l.037.332-2.884.321-5.092-5.019-.781.131.393,3.529q.11.993.442,1.225a2.513,2.513,0,0,0,1.355.207l.037.332-4.974.553Zm5.43-6.887a2.188,2.188,0,0,0,1.181-2.357,2.122,2.122,0,0,0-1.513-1.978,4.513,4.513,0,0,0-1.843-.105,2.3,2.3,0,0,0-.92.213c-.105.086-.143.262-.113.53l.489,4.407A9.108,9.108,0,0,0,330.028,1032.743Z" transform="translate(-246.78 -1027.283)"/><path d="M357.938,1038.7a3,3,0,0,0,1.455-.151q.352-.207.481-1.24l.981-7.953a1.759,1.759,0,0,0-.166-1.311,2.555,2.555,0,0,0-1.373-.51l.04-.332,5.291.653-.041.331a2.548,2.548,0,0,0-1.456.162,1.75,1.75,0,0,0-.48,1.23l-.981,7.953q-.128,1.033.165,1.321a3.006,3.006,0,0,0,1.374.5l-.041.332-5.29-.654Z" transform="translate(-256.442 -1027.198)"/><path d="M381.83,1043.426a2.65,2.65,0,0,0,1.332.114q.362-.132.714-1.084l2.775-7.518a1.87,1.87,0,0,0,.162-1.276,2.142,2.142,0,0,0-1.087-.791l.116-.313,8.978,3.314-.834,2.439-.429-.158a2.559,2.559,0,0,0-.109-1.683,3.83,3.83,0,0,0-1.794-1.035l-2.3-.85c-.248-.092-.416-.107-.5-.049a.859.859,0,0,0-.253.417l-1.393,3.771,2.608.963a2.125,2.125,0,0,0,1.5.189,2.945,2.945,0,0,0,.958-1.121l.4.146-1.441,3.9-.4-.146a2.994,2.994,0,0,0-.007-1.479q-.179-.427-1.253-.823l-2.607-.963-1.545,4.184c-.124.335-.091.573.1.711a11.427,11.427,0,0,0,1.872.794,6.851,6.851,0,0,0,2.675.562,3.665,3.665,0,0,0,2.142-1.277l.47.175-1.821,2.571-9.135-3.372Z" transform="translate(-263.097 -1028.696)"/><path d="M410.671,1056.925a2.156,2.156,0,0,0,1.458.43q.486-.131,1.32-1.285l4.651-6.432-.03-.379a2,2,0,0,0-.208-.861,2.634,2.634,0,0,0-.6-.59l.2-.271,2.491,1.8.585,11.059,3.508-4.852a2.881,2.881,0,0,0,.77-1.815,2.215,2.215,0,0,0-.821-1.057l.2-.271,3.428,2.479-.2.271a2.092,2.092,0,0,0-1.406-.4q-.51.12-1.34,1.267l-5.556,7.684-.25-.18-.67-12.674-4.109,5.682a2.939,2.939,0,0,0-.778,1.813,2.193,2.193,0,0,0,.788,1.057l-.2.271-3.429-2.479Z" transform="translate(-271.134 -1032.881)"/><path d="M452.179,1080.335a9.8,9.8,0,0,0,.486,1.085.913.913,0,0,0,.411.292.735.735,0,0,0,.541-.024l.234.3-3.071,2.639-.256-.324a5.833,5.833,0,0,0,.941-1.943,3.619,3.619,0,0,0-.757-3.2,3.788,3.788,0,0,0-3.091-1.5,6.407,6.407,0,0,0-3.974,1.61,5.623,5.623,0,0,0-2.237,3.376,4.07,4.07,0,0,0,.854,3.4,5.126,5.126,0,0,0,2.122,1.608,7.707,7.707,0,0,0,1.819.458l-.055.469a6.178,6.178,0,0,1-4.757-2.317,5.956,5.956,0,0,1-1.4-4.768,6.089,6.089,0,0,1,2.385-3.89,6.232,6.232,0,0,1,4.495-1.433,5.947,5.947,0,0,1,4.295,2.413A7.352,7.352,0,0,1,452.179,1080.335Z" transform="translate(-279.36 -1040.876)"/><path d="M455.559,1108.121a2.647,2.647,0,0,0,.832,1.047q.344.173,1.278-.225l7.372-3.141q.882-.377,1.039-.759a2.137,2.137,0,0,0-.171-1.332l.308-.131,3.752,8.8-2.347,1.066-.18-.421a2.548,2.548,0,0,0,1.149-1.235,3.821,3.821,0,0,0-.478-2.014l-.961-2.256c-.1-.244-.207-.378-.31-.4a.868.868,0,0,0-.477.1l-3.7,1.575,1.09,2.557q.452,1.059.89,1.217a2.938,2.938,0,0,0,1.472-.072l.166.388-3.828,1.631-.166-.388a3,3,0,0,0,1.071-1.02,2.123,2.123,0,0,0-.261-1.476l-1.09-2.557-4.1,1.749q-.494.21-.45.56a11.551,11.551,0,0,0,.708,1.905,6.851,6.851,0,0,0,1.428,2.332,3.663,3.663,0,0,0,2.4.681l.2.461-3.12.44-3.818-8.958Z" transform="translate(-283.645 -1048.541)"/><g transform="translate(4.057 125.675)"><path d="M223.037,1206.07a2.638,2.638,0,0,0,.823,1.053q.344.176,1.28-.215l7.4-3.086q.884-.37,1.045-.751a2.144,2.144,0,0,0-.161-1.334l.308-.129,3.686,8.832-2.354,1.049-.177-.422a2.551,2.551,0,0,0,1.158-1.226,3.822,3.822,0,0,0-.463-2.018l-.945-2.263c-.1-.244-.2-.379-.306-.4a.869.869,0,0,0-.478.1l-3.71,1.549,1.071,2.565q.443,1.063.881,1.224a2.949,2.949,0,0,0,1.473-.062l.162.39-3.839,1.6-.163-.39a2.987,2.987,0,0,0,1.079-1.012,2.117,2.117,0,0,0-.25-1.478l-1.07-2.565-4.116,1.717q-.5.207-.454.557a11.424,11.424,0,0,0,.693,1.912,6.847,6.847,0,0,0,1.411,2.341,3.665,3.665,0,0,0,2.393.7l.194.462-3.124.417-3.75-8.985Z" transform="translate(-222.729 -1201.608)"/><path d="M238.4,1235.493a2.086,2.086,0,0,0,.98.626,14.684,14.684,0,0,0,2.248.129l4.424.056,1.051-3.34a15.462,15.462,0,0,0,.726-2.879,2.17,2.17,0,0,0-.472-1.4l.262-.207,3.354,4.258-.263.207a4.511,4.511,0,0,0-.713-.736.477.477,0,0,0-.615.028,1.338,1.338,0,0,0-.354.5,3.487,3.487,0,0,0-.165.442l-.966,3.126,3.183.067a4.721,4.721,0,0,0,1.05-.061.811.811,0,0,0,.336-.142.517.517,0,0,0,.177-.629,3.286,3.286,0,0,0-.463-.729l.263-.207,2.64,3.352-.262.206a2.539,2.539,0,0,0-.871-.735,6.1,6.1,0,0,0-2.12-.3l-4.176-.025-1.77,5.739a3.536,3.536,0,0,0-.233,1.343,3.054,3.054,0,0,0,.409,1.036l-.262.207-3.277-4.159.263-.207a3.581,3.581,0,0,0,.763.753.434.434,0,0,0,.534-.038,2.233,2.233,0,0,0,.49-.9q.268-.721,1.236-3.792l-3.393-.018c-.5,0-.855.007-1.073.024a1.375,1.375,0,0,0-.68.168.564.564,0,0,0-.145.692,3.761,3.761,0,0,0,.459.809l-.263.207-2.572-3.265Z" transform="translate(-227.035 -1209.115)"/><path d="M263.388,1261.7a2,2,0,0,0,1.273.44q.39-.1,1.054-.99l4.656-6.26a1.883,1.883,0,0,0,.51-1.166,2.048,2.048,0,0,0-.78-1.051l.2-.268,3.811,2.835a5.862,5.862,0,0,1,2.279,2.8,2.766,2.766,0,0,1-.423,2.6,2.889,2.889,0,0,1-2.67,1.335,6.331,6.331,0,0,1-3.2-1.346q-.232-.173-.589-.455c-.237-.186-.414-.324-.532-.411l-1.953,2.626q-.605.814-.512,1.21a2.731,2.731,0,0,0,.915,1.106l-.2.268-4.045-3.008Zm11.193-4.863a4.86,4.86,0,0,0-1.353-1.424,1.255,1.255,0,0,0-.613-.318c-.112.007-.243.113-.393.315l-2.8,3.769c.241.216.4.356.476.42s.153.124.228.181a4.5,4.5,0,0,0,1.777.883,2.432,2.432,0,0,0,2.471-1.155A2.261,2.261,0,0,0,274.58,1256.841Z" transform="translate(-234.034 -1215.803)"/><path d="M290.71,1278.527a2.63,2.63,0,0,0,1.327.156q.366-.12.748-1.06l3.011-7.426a1.875,1.875,0,0,0,.2-1.271,2.142,2.142,0,0,0-1.061-.824l.126-.31,8.869,3.6-.911,2.412-.424-.172a2.554,2.554,0,0,0-.057-1.685,3.821,3.821,0,0,0-1.76-1.092l-2.273-.922q-.367-.149-.5-.066a.871.871,0,0,0-.266.409L296.23,1274l2.576,1.045a2.127,2.127,0,0,0,1.489.236,2.956,2.956,0,0,0,.992-1.09l.391.159-1.563,3.855-.391-.158a3,3,0,0,0,.039-1.479q-.166-.434-1.226-.863l-2.576-1.045-1.675,4.133q-.2.5.076.714a11.317,11.317,0,0,0,1.845.853,6.847,6.847,0,0,0,2.656.646,3.662,3.662,0,0,0,2.181-1.209l.465.189-1.9,2.513-9.024-3.658Z" transform="translate(-241.69 -1220.102)"/><path d="M323.1,1288.659a2.036,2.036,0,0,0,1.332-.247,2.533,2.533,0,0,0,.422-1.386l.922-7.747a1.887,1.887,0,0,0-.137-1.27,2.1,2.1,0,0,0-1.209-.52l.039-.332,4.953.589a7.369,7.369,0,0,1,2.53.7,2.744,2.744,0,0,1,1.632,2.963,2.523,2.523,0,0,1-1.113,1.946,4.813,4.813,0,0,1-2.474.661l3.145,4.978a2.5,2.5,0,0,0,.61.688,2.264,2.264,0,0,0,.844.347l-.04.331-2.881-.343-3.819-6.044-.79-.05-.42,3.525a1.774,1.774,0,0,0,.152,1.293,2.511,2.511,0,0,0,1.273.51l-.04.331-4.97-.591Zm6.852-5.474a2.186,2.186,0,0,0,1.685-2.027,2.122,2.122,0,0,0-1.022-2.27,4.507,4.507,0,0,0-1.772-.521,2.3,2.3,0,0,0-.943,0c-.122.059-.2.223-.231.49l-.524,4.4A9.109,9.109,0,0,0,329.95,1283.185Z" transform="translate(-250.764 -1222.718)"/><path d="M357.582,1289.851a3.012,3.012,0,0,0,1.378-.49q.294-.287.174-1.319l-.922-7.96a1.756,1.756,0,0,0-.471-1.234,2.558,2.558,0,0,0-1.454-.172l-.038-.331,5.295-.614.038.332a2.538,2.538,0,0,0-1.376.5,1.751,1.751,0,0,0-.176,1.309l.922,7.959q.12,1.034.472,1.245a3.008,3.008,0,0,0,1.453.161l.038.332-5.295.614Z" transform="translate(-260.038 -1222.879)"/><path d="M382.58,1284.277a2.642,2.642,0,0,0,1.092-.771q.192-.334-.152-1.289l-2.719-7.538a1.874,1.874,0,0,0-.7-1.081,2.147,2.147,0,0,0-1.34.1l-.113-.313,9-3.248.932,2.4-.43.155a2.557,2.557,0,0,0-1.168-1.217,3.822,3.822,0,0,0-2.038.363l-2.307.832c-.249.089-.388.185-.417.286a.875.875,0,0,0,.076.483l1.363,3.781,2.615-.943q1.084-.39,1.266-.819a2.943,2.943,0,0,0,.011-1.474l.4-.143,1.412,3.913-.4.143a2.991,2.991,0,0,0-.958-1.127,2.11,2.11,0,0,0-1.488.177l-2.615.943,1.513,4.2c.121.337.3.5.534.481a11.509,11.509,0,0,0,1.943-.6,6.855,6.855,0,0,0,2.408-1.294,3.665,3.665,0,0,0,.816-2.357l.471-.169.263,3.14-9.159,3.3Z" transform="translate(-266.298 -1220.756)"/><path d="M412.66,1269.427q.843-.74.875-1.242a3.3,3.3,0,0,0-.795-1.663l-4.6-6.466-.368-.093a1.983,1.983,0,0,0-.882-.079,2.606,2.606,0,0,0-.752.378l-.194-.272,2.5-1.783,10.663,2.99-3.472-4.877q-.856-1.2-1.473-1.311a2.218,2.218,0,0,0-1.264.438l-.194-.272,3.447-2.453.195.272a2.1,2.1,0,0,0-.828,1.2,3.1,3.1,0,0,0,.772,1.675l5.5,7.725-.251.178-12.22-3.426,4.065,5.714q.856,1.2,1.468,1.318a2.194,2.194,0,0,0,1.254-.407l.194.272-3.447,2.453Z" transform="translate(-273.924 -1215.89)"/><path d="M437.394,1232.371a10.03,10.03,0,0,0,.948-.717.907.907,0,0,0,.192-.465.735.735,0,0,0-.144-.522l.236-.295,3.261,2.4-.259.322a5.838,5.838,0,0,0-2.105-.482,3.615,3.615,0,0,0-2.949,1.456,3.786,3.786,0,0,0-.769,3.347,6.4,6.4,0,0,0,2.459,3.513,5.628,5.628,0,0,0,3.792,1.424,4.069,4.069,0,0,0,3.123-1.594,5.143,5.143,0,0,0,1.092-2.429,7.739,7.739,0,0,0,.037-1.875l.471-.052a6.047,6.047,0,0,1,.105,1.991,6.4,6.4,0,0,1-5.63,5.6,6.094,6.094,0,0,1-4.327-1.452,6.239,6.239,0,0,1-2.4-4.061,5.947,5.947,0,0,1,1.391-4.726A7.348,7.348,0,0,1,437.394,1232.371Z" transform="translate(-281.893 -1209.645)"/><path d="M459.519,1217.946a2.639,2.639,0,0,0,.189-1.323q-.111-.37-1.042-.775l-7.347-3.2a1.869,1.869,0,0,0-1.265-.234,2.142,2.142,0,0,0-.851,1.04l-.306-.133,3.819-8.775,2.388.971-.182.42a2.552,2.552,0,0,0-1.687.014,3.827,3.827,0,0,0-1.136,1.731l-.979,2.249c-.105.243-.131.409-.078.5a.866.866,0,0,0,.4.276l3.686,1.6,1.109-2.549a2.119,2.119,0,0,0,.273-1.483,2.949,2.949,0,0,0-1.064-1.02l.169-.387,3.815,1.66-.169.387a2.982,2.982,0,0,0-1.477-.077q-.437.155-.894,1.2l-1.109,2.548,4.089,1.779q.492.215.716-.058a11.441,11.441,0,0,0,.9-1.824,6.82,6.82,0,0,0,.712-2.639,3.658,3.658,0,0,0-1.152-2.211l.2-.46,2.464,1.964-3.886,8.928Z" transform="translate(-285.927 -1202.429)"/></g></g></g></svg>