<svg xmlns="http://www.w3.org/2000/svg" width="275.801" height="231.493" viewBox="0 0 275.801 231.493"><defs><style>.a{fill:rgba(170,170,170,0.24);}</style></defs><g transform="translate(-2396.088 -1425.792)"><path class="a" d="M2514.891,1633.864c6.106,4.8,7.734,12.786,7.734,12.786s-8.271.194-14.376-4.611-7.734-12.785-7.734-12.785S2508.785,1629.06,2514.891,1633.864Z"/><path class="a" d="M2507.508,1646.35c7.372-2.56,15.117.3,15.117.3s-4.206,7.01-11.578,9.571-15.117-.3-15.117-.3S2500.136,1648.91,2507.508,1646.35Z"/><path class="a" d="M2491.059,1627.4c5.375,5.585,5.872,13.711,5.872,13.711s-8.22-.929-13.595-6.513-5.872-13.712-5.872-13.712S2485.683,1621.818,2491.059,1627.4Z"/><path class="a" d="M2482,1638.771c7.66-1.538,14.933,2.344,14.933,2.344s-5.148,6.374-12.808,7.911-14.932-2.345-14.932-2.345S2474.338,1640.307,2482,1638.771Z"/><path class="a" d="M2472.3,1618.125c4.409,6.353,3.592,14.454,3.592,14.454s-7.966-2.2-12.375-8.55-3.593-14.454-3.593-14.454S2467.891,1611.773,2472.3,1618.125Z"/><path class="a" d="M2461.526,1627.938c7.811-.325,14.367,4.641,14.367,4.641s-6.107,5.491-13.918,5.817-14.367-4.642-14.367-4.642S2453.716,1628.262,2461.526,1627.938Z"/><path class="a" d="M2454.773,1603.992c2.711,7.215-.08,14.879-.08,14.879s-7.185-4.034-9.9-11.25.08-14.879.08-14.879S2452.063,1596.776,2454.773,1603.992Z"/><path class="a" d="M2441.9,1610.938c7.658,1.55,12.792,7.933,12.792,7.933s-7.278,3.869-14.935,2.319-12.793-7.934-12.793-7.934S2434.244,1609.387,2441.9,1610.938Z"/><path class="a" d="M2441.525,1587.618c.913,7.641-3.63,14.445-3.63,14.445s-6.022-5.584-6.934-13.224,3.632-14.444,3.632-14.444S2440.614,1579.978,2441.525,1587.618Z"/><path class="a" d="M2427.355,1591.393c7.073,3.278,10.54,10.67,10.54,10.67s-8,2.077-15.073-1.2-10.538-10.67-10.538-10.67S2420.283,1588.114,2427.355,1591.393Z"/><path class="a" d="M2430.22,1567.007c-.651,7.666-6.478,13.445-6.478,13.445s-4.773-6.65-4.122-14.316,6.478-13.446,6.478-13.446S2430.87,1559.341,2430.22,1567.007Z"/><path class="a" d="M2415.569,1567.933c6.269,4.6,8.173,12.519,8.173,12.519s-8.26.47-14.528-4.126-8.172-12.519-8.172-12.519S2409.3,1563.336,2415.569,1567.933Z"/><path class="a" d="M2424.383,1547.354c-1.875,7.469-8.559,12.267-8.559,12.267s-3.642-7.308-1.767-14.777,8.558-12.267,8.558-12.267S2426.258,1539.887,2424.383,1547.354Z"/><path class="a" d="M2409.769,1545.987c5.45,5.515,6.055,13.634,6.055,13.634s-8.23-.821-13.68-6.336-6.056-13.635-6.056-13.635S2404.318,1540.473,2409.769,1545.987Z"/><path class="a" d="M2423.749,1525.453c-3.661,6.8-11.328,9.857-11.328,9.857s-1.731-7.961,1.93-14.758,11.328-9.857,11.328-9.857S2427.41,1518.656,2423.749,1525.453Z"/><path class="a" d="M2409.909,1520.637c3.927,6.651,2.512,14.673,2.512,14.673s-7.782-2.764-11.709-9.415-2.512-14.673-2.512-14.673S2405.981,1513.985,2409.909,1520.637Z"/><path class="a" d="M2427.654,1503.348c-5.182,5.759-13.365,6.96-13.365,6.96s.219-8.139,5.4-13.9,13.365-6.96,13.365-6.96S2432.836,1497.588,2427.654,1503.348Z"/><path class="a" d="M2415.352,1495.465c2.228,7.373-1.063,14.843-1.063,14.843s-6.9-4.487-9.133-11.86,1.064-14.843,1.064-14.843S2413.123,1488.091,2415.352,1495.465Z"/><path class="a" d="M2435.658,1485.174c-6.38,4.446-14.625,3.78-14.625,3.78s2.1-7.875,8.477-12.321,14.625-3.78,14.625-3.78S2442.037,1480.728,2435.658,1485.174Z"/><path class="a" d="M2425.5,1474.74c.462,7.679-4.472,14.214-4.472,14.214s-5.683-5.916-6.146-13.6,4.472-14.213,4.472-14.213S2425.043,1467.06,2425.5,1474.74Z"/><path class="a" d="M2445.665,1468.731c-7.015,3.4-15.048,1.454-15.048,1.454s3.337-7.449,10.352-10.845,15.049-1.454,15.049-1.454S2452.68,1465.335,2445.665,1468.731Z"/><path class="a" d="M2437.318,1456.848c-.778,7.654-6.7,13.337-6.7,13.337s-4.661-6.726-3.883-14.38,6.7-13.338,6.7-13.338S2438.1,1449.193,2437.318,1456.848Z"/><path class="a" d="M2557.291,1632.83c-6.106,4.805-7.734,12.786-7.734,12.786s8.271.194,14.377-4.61,7.734-12.786,7.734-12.786S2563.4,1628.026,2557.291,1632.83Z"/><path class="a" d="M2564.675,1645.316c-7.372-2.56-15.118.3-15.118.3s4.206,7.011,11.578,9.57,15.118-.3,15.118-.3S2572.047,1647.876,2564.675,1645.316Z"/><path class="a" d="M2578.106,1627.4c-5.375,5.585-5.872,13.711-5.872,13.711s8.22-.929,13.6-6.513,5.872-13.712,5.872-13.712S2583.482,1621.818,2578.106,1627.4Z"/><path class="a" d="M2587.167,1638.771c-7.66-1.538-14.933,2.344-14.933,2.344s5.148,6.374,12.808,7.911,14.932-2.345,14.932-2.345S2594.826,1640.307,2587.167,1638.771Z"/><path class="a" d="M2596.834,1617.347c-4.409,6.351-3.592,14.453-3.592,14.453s7.966-2.2,12.375-8.55,3.593-14.453,3.593-14.453S2601.244,1610.994,2596.834,1617.347Z"/><path class="a" d="M2607.608,1627.158c-7.81-.324-14.366,4.642-14.366,4.642s6.108,5.492,13.918,5.816,14.366-4.641,14.366-4.641S2615.419,1627.483,2607.608,1627.158Z"/><path class="a" d="M2613.76,1603.584c-2.712,7.216.079,14.88.079,14.88s7.186-4.034,9.9-11.25-.08-14.879-.08-14.879S2616.471,1596.369,2613.76,1603.584Z"/><path class="a" d="M2626.631,1610.53c-7.656,1.551-12.792,7.934-12.792,7.934s7.279,3.869,14.936,2.318,12.792-7.933,12.792-7.933S2634.288,1608.979,2626.631,1610.53Z"/><path class="a" d="M2627.733,1586.118c-.911,7.641,3.632,14.445,3.632,14.445s6.021-5.584,6.933-13.224-3.632-14.444-3.632-14.444S2628.645,1578.478,2627.733,1586.118Z"/><path class="a" d="M2641.9,1589.893c-7.072,3.278-10.539,10.67-10.539,10.67s8,2.077,15.072-1.2,10.539-10.67,10.539-10.67S2648.976,1586.614,2641.9,1589.893Z"/><path class="a" d="M2637.757,1566.625c.65,7.666,6.477,13.445,6.477,13.445s4.773-6.65,4.122-14.316-6.477-13.445-6.477-13.445S2637.106,1558.959,2637.757,1566.625Z"/><path class="a" d="M2652.407,1567.551c-6.268,4.6-8.173,12.519-8.173,12.519s8.26.47,14.529-4.126,8.172-12.519,8.172-12.519S2658.676,1562.954,2652.407,1567.551Z"/><path class="a" d="M2643.594,1546.938c1.875,7.468,8.558,12.267,8.558,12.267s3.643-7.309,1.768-14.777-8.559-12.268-8.559-12.268S2641.718,1539.47,2643.594,1546.938Z"/><path class="a" d="M2658.207,1545.57c-5.449,5.516-6.055,13.635-6.055,13.635s8.231-.822,13.681-6.337,6.056-13.635,6.056-13.635S2663.658,1540.056,2658.207,1545.57Z"/><path class="a" d="M2644.123,1525.766c3.661,6.8,11.328,9.856,11.328,9.856s1.732-7.961-1.929-14.758-11.329-9.856-11.329-9.856S2640.462,1518.969,2644.123,1525.766Z"/><path class="a" d="M2657.964,1520.949c-3.928,6.652-2.513,14.673-2.513,14.673s7.782-2.764,11.709-9.415,2.513-14.673,2.513-14.673S2661.891,1514.3,2657.964,1520.949Z"/><path class="a" d="M2640.033,1503.647c5.182,5.76,13.364,6.96,13.364,6.96s-.218-8.138-5.4-13.9-13.365-6.96-13.365-6.96S2634.851,1497.888,2640.033,1503.647Z"/><path class="a" d="M2652.334,1495.765c-2.228,7.373,1.063,14.842,1.063,14.842s6.905-4.486,9.133-11.859-1.063-14.843-1.063-14.843S2654.563,1488.391,2652.334,1495.765Z"/><path class="a" d="M2632.256,1485.781c6.38,4.447,14.625,3.779,14.625,3.779s-2.1-7.875-8.477-12.32-14.626-3.78-14.626-3.78S2625.877,1481.336,2632.256,1485.781Z"/><path class="a" d="M2642.408,1475.348c-.461,7.678,4.473,14.212,4.473,14.212s5.684-5.914,6.146-13.594-4.472-14.214-4.472-14.214S2642.871,1467.668,2642.408,1475.348Z"/><path class="a" d="M2621.665,1469.462c7.015,3.4,15.049,1.454,15.049,1.454s-3.338-7.449-10.353-10.846-15.047-1.454-15.047-1.454S2614.651,1466.065,2621.665,1469.462Z"/><path class="a" d="M2630.012,1457.578c.779,7.654,6.7,13.338,6.7,13.338s4.661-6.726,3.882-14.381-6.7-13.338-6.7-13.338S2629.233,1449.924,2630.012,1457.578Z"/><path class="a" d="M2616.024,1445.992a9.957,9.957,0,0,1-1.1.977c-.123.094-.25.158-.374.238,24.514,20.873,39.952,51.082,39.952,84.635,0,62.838-54.135,113.961-120.677,113.961s-120.676-51.123-120.676-113.961c0-32.066,14.1-61.074,36.748-81.8a11.828,11.828,0,0,1-1.946-.766c-22.662,21.024-36.742,50.27-36.742,82.569,0,63.849,55.006,115.795,122.616,115.795s122.617-51.946,122.617-115.795C2656.444,1497.828,2640.833,1467.195,2616.024,1445.992Z"/><path class="a" d="M2461.9,1454.191c-7.641,1.62-14.957-2.182-14.957-2.182s5.075-6.43,12.718-8.049,14.957,2.183,14.957,2.183S2469.547,1452.572,2461.9,1454.191Z"/><path class="a" d="M2456.739,1440.67c-2.643,7.239-9.792,11.339-9.792,11.339s-2.862-7.639-.218-14.878,9.792-11.339,9.792-11.339S2459.383,1433.431,2456.739,1440.67Z"/><path class="a" d="M2606.259,1454.191c7.642,1.62,14.958-2.182,14.958-2.182s-5.076-6.43-12.718-8.049-14.958,2.183-14.958,2.183S2598.617,1452.572,2606.259,1454.191Z"/><path class="a" d="M2611.425,1440.67c2.643,7.239,9.792,11.339,9.792,11.339s2.861-7.639.218-14.878-9.791-11.339-9.791-11.339S2608.781,1433.431,2611.425,1440.67Z"/></g></svg>